<?xml version="1.0" encoding="utf-8"?>
<!-- Generator: Adobe Illustrator 21.0.0, SVG Export Plug-In . SVG Version: 6.00 Build 0)  -->
<svg version="1.1" id="Layer_1" xmlns="http://www.w3.org/2000/svg" xmlns:xlink="http://www.w3.org/1999/xlink" x="0px" y="0px"
	 viewBox="0 0 153.4 241.7" style="enable-background:new 0 0 153.4 241.7;" xml:space="preserve">
<style type="text/css">
	.st0{clip-path:url(#SVGID_2_);fill:#FFFFFF;}
	.st1{clip-path:url(#SVGID_4_);fill:#14113D;}
	.st2{clip-path:url(#SVGID_6_);}
	.st3{fill:#FFFFFF;}
	.st4{clip-path:url(#SVGID_8_);}
	.st5{clip-path:url(#SVGID_10_);}
	.st6{fill:#3B6EB1;}
	.st7{fill:#14113D;}
	.st8{clip-path:url(#SVGID_12_);}
	.st9{fill:#3A6CB1;}
	.st10{clip-path:url(#SVGID_14_);fill:#14113D;}
	.st11{clip-path:url(#SVGID_16_);}
	.st12{clip-path:url(#SVGID_18_);}
	.st13{fill:#EC3339;}
	.st14{font-family:'SegoeUIVariable';}
	.st15{font-size:13.3742px;}
	.st16{fill:#DC6C1A;}
	.st17{font-size:9.5026px;}
	.st18{fill:#2C2F72;}
	.st19{clip-path:url(#SVGID_20_);fill:url(#SVGID_21_);}
	.st20{clip-path:url(#SVGID_23_);fill:url(#SVGID_24_);}
	.st21{clip-path:url(#SVGID_26_);fill:url(#SVGID_27_);}
	.st22{fill:#FF7B85;}
	.st23{clip-path:url(#SVGID_29_);fill:url(#SVGID_30_);}
	.st24{clip-path:url(#SVGID_32_);fill:url(#SVGID_33_);}
</style>
<rect x="0.4" y="-0.2" class="st3" width="153" height="240.9"/>
<text transform="matrix(0.9485 0 0 1 52.3848 136.1318)" class="st13 st14 st15">{{name}}</text>
<g>
	<path d="M31.9,144.1c-0.2-0.2-0.3-0.3-0.5-0.5c-0.2-0.1-0.4-0.3-0.7-0.4c-0.2-0.1-0.5-0.2-0.7-0.3c-0.2-0.1-0.5-0.1-0.8-0.1
		c-0.4,0-0.8,0.1-1.2,0.4c-0.4,0.3-0.7,0.6-0.7,1l0.2,0.5h0.5l0.5,0.5h-0.9v5.6l-0.5-0.5v-5h-0.8l-0.5-0.5h1.3l-0.4-0.4
		c-0.1-0.1-0.2-0.3-0.2-0.4c0-0.4,0.2-0.8,0.7-1.2c0.4-0.4,0.9-0.5,1.3-0.5c1.1,0,2.1,0.5,3.1,1.6L31.9,144.1z"/>
	<path d="M33.3,145.3v5.5l-0.5-0.6l0.1-2.8c0-0.1,0-0.2-0.1-0.3c0-0.1-0.1-0.2-0.2-0.3c-0.1-0.1-0.1-0.2-0.2-0.3
		c-0.1-0.1-0.1-0.1-0.2-0.2l-1.8,1.9l-0.7-0.3c0.3-0.3,0.5-0.6,0.5-0.8c0-0.4-0.1-0.6-0.3-0.6c0,0-0.1,0-0.2,0c-0.1,0-0.1,0-0.2,0.1
		c-0.2,0.1-0.3,0.1-0.4,0.1c-0.1,0-0.2,0-0.3-0.1c-0.1-0.1-0.1-0.2-0.1-0.3c0-0.2,0.1-0.4,0.2-0.6c0.1-0.2,0.3-0.4,0.5-0.5
		c0.2-0.1,0.4-0.3,0.6-0.3c0.2-0.1,0.4-0.1,0.6-0.1c0.7,0,1.4,0.6,2.1,1.7l0,0c0-0.5,0-0.9-0.1-1.4c0-0.5,0-0.9-0.1-1.4L33,144
		c0,0.3,0.1,0.5,0.1,0.6c0.1,0.2,0.2,0.3,0.4,0.3c0,0,0.1,0,0.2,0l0.5,0.5H33.3z M31.8,145.9c-0.2-0.3-0.5-0.4-0.8-0.4
		c-0.6,0-1,0.2-1.2,0.7c0.3,0,0.5,0.1,0.6,0.3s0.2,0.4,0.1,0.7L31.8,145.9z"/>
	<path d="M40,145.3h-6l-0.5-0.5h6L40,145.3z M39.4,148.1c0,0.3-0.1,0.5-0.2,0.7c-0.1,0.2-0.2,0.4-0.4,0.6c-0.4,0.4-0.8,0.5-1.3,0.5
		c-1.4,0-2.4-1.4-3.2-4.3l0.3,0.1c0.2,0.5,0.4,1,0.6,1.4s0.3,0.7,0.4,0.8c0.5,0.8,1.2,1.2,1.9,1.2c0.4,0,0.7-0.1,1-0.4
		c0.3-0.3,0.4-0.6,0.4-1c0-0.3-0.1-0.6-0.2-0.8c-0.2-0.3-0.4-0.4-0.7-0.4c-0.1,0-0.2,0-0.4,0.1c0.1,0.2,0.2,0.4,0.2,0.6
		c0,0.5-0.3,0.8-0.8,0.8c-0.3,0-0.5-0.1-0.6-0.3c-0.2-0.2-0.2-0.4-0.2-0.7c0-0.3,0.1-0.6,0.4-0.8c0.2-0.2,0.5-0.3,0.8-0.3
		c0.3,0,0.5,0.1,0.8,0.2c0.2,0.1,0.4,0.3,0.6,0.5c0.2,0.2,0.3,0.5,0.4,0.7C39.3,147.5,39.4,147.8,39.4,148.1z"/>
	<path d="M41,145.3v5.6l-0.5-0.5v-3.9c0-0.2,0-0.3-0.1-0.4c-0.1-0.1-0.1-0.2-0.2-0.3s-0.2-0.2-0.4-0.2s-0.3-0.1-0.4-0.1l-0.5-0.5
		h0.6c0.3,0,0.5,0.1,0.7,0.2c0.2,0.1,0.3,0.4,0.4,0.7c0-0.1,0-0.2,0-0.4c0-0.2,0-0.3,0-0.6c0-0.2,0-0.4,0-0.5s0-0.3,0-0.4l0.2,0.2
		c0.1,0.4,0.2,0.7,0.3,0.8h0.5l0.5,0.5H41z"/>
</g>
<g>
	<path d="M29.6,157.7c-0.4,0.1-0.7,0.2-1,0.4c-0.3,0.2-0.5,0.5-0.7,0.8c-0.2,0.3-0.3,0.6-0.4,1c-0.1,0.3-0.1,0.7-0.1,1.2
		c0,0.4,0.1,0.7,0.3,1c0.2,0.4,0.5,0.6,0.8,0.6h0c0,0,0.1,0,0.1,0c-0.1-0.1-0.2-0.2-0.2-0.3c-0.1-0.1-0.1-0.2-0.1-0.3
		c0-0.1,0-0.2,0.1-0.2c0-0.1,0.1-0.1,0.1-0.2s0.1-0.1,0.2-0.1c0.1,0,0.2,0,0.2,0c0.2,0,0.3,0.1,0.4,0.2s0.2,0.3,0.2,0.5
		c0,0.1,0,0.2-0.1,0.4c0,0.1-0.1,0.2-0.2,0.3c-0.1,0.1-0.2,0.1-0.3,0.2c-0.1,0-0.2,0.1-0.4,0.1c-0.6,0-1-0.3-1.3-0.9
		c-0.3-0.5-0.4-1.1-0.4-1.8c0-0.5,0.1-1,0.3-1.5c0.2-0.4,0.4-0.9,0.8-1.2c0.2-0.1,0.3-0.3,0.5-0.4s0.4-0.2,0.6-0.2L29.6,157.7z"/>
	<path d="M31.2,161.6L31.2,161.6c0.1,0,0.2,0,0.3,0c0.1,0,0.3,0,0.4,0c0.1,0,0.3,0,0.4,0.1c0.1,0,0.3,0.1,0.4,0.1
		c0,0,0.1,0.1,0.2,0.1c0.1,0,0.2,0.1,0.2,0.2c0.1,0.1,0.2,0.1,0.3,0.2c0.1,0.1,0.2,0.2,0.2,0.2l0-3.2c0-0.2-0.1-0.5-0.3-0.8
		c-0.2-0.3-0.4-0.5-0.6-0.5c-0.1,0-0.3,0-0.4,0.1s-0.2,0.2-0.2,0.3c0.5,0.4,0.8,0.7,0.8,1c0,0.1,0,0.2-0.1,0.3
		c0,0.1-0.1,0.2-0.1,0.3s-0.1,0.1-0.2,0.2s-0.2,0.1-0.3,0.1c-0.2,0-0.3-0.1-0.5-0.2s-0.2-0.3-0.3-0.5c-0.2,0.4-0.4,0.7-0.8,0.7
		c-0.2,0-0.3-0.1-0.4-0.2s-0.2-0.3-0.2-0.5c0-0.1,0-0.3,0.1-0.4c0-0.1,0.1-0.2,0.2-0.3s0.2-0.2,0.3-0.3c0.1-0.1,0.2-0.1,0.3-0.2
		c-0.2-0.5-0.6-0.7-1.2-0.7c0,0-0.1,0-0.1,0c0,0-0.1,0-0.1,0l-0.5-0.5H30c0.3,0,0.5,0.1,0.7,0.3s0.4,0.5,0.4,0.8
		c0.3-0.7,0.7-1.1,1.3-1.1c0.2,0,0.4,0.2,0.7,0.6c0.3,0.3,0.4,0.6,0.5,0.9h0l-0.1-2.4l0.3,0.3c0.1,0.4,0.2,0.6,0.5,0.6l0.5,0.5h-0.8
		v5.8l-0.5-0.5c-0.1-0.1-0.3-0.2-0.5-0.3c-0.2-0.1-0.4-0.1-0.6-0.1c-0.2,0-0.4,0-0.6,0c-0.2,0-0.4,0-0.6,0c-0.3,0-0.5-0.1-0.7-0.1
		c-0.2-0.1-0.4-0.2-0.6-0.3c-0.2-0.1-0.3-0.3-0.4-0.5s-0.1-0.4-0.1-0.7c0-0.1,0-0.2,0-0.4s0.1-0.3,0.1-0.5l0.2,0.2
		c0,0.1-0.1,0.2-0.1,0.4C29.7,161.2,30.2,161.6,31.2,161.6z"/>
	<path d="M38.9,157.7v5.7l-0.4-0.3l0-0.6c0-0.6-0.1-1.2-0.4-1.9c-0.4-0.7-0.9-1.1-1.4-1.1c-0.1,0-0.1,0-0.1,0
		c0.2,0.3,0.3,0.5,0.3,0.7c0,0.2-0.1,0.4-0.2,0.6c-0.1,0.2-0.3,0.2-0.5,0.2c-0.6,0-1-0.3-1-1c0-0.4,0.1-0.7,0.4-0.9
		c0.3-0.2,0.6-0.4,0.9-0.4c0.7,0,1.3,0.6,1.9,1.8h0v-2.9h-3.6l-0.5-0.5h4.9l0.5,0.5H38.9z"/>
	<path d="M40.8,157.7v5.6l-0.5-0.5v-5h-0.7l-0.5-0.5h1.3c-0.2-1.5-1.2-2.3-2.9-2.3c-0.1,0-0.3,0-0.4,0s-0.3,0-0.4,0.1
		c-0.4,0.1-0.6,0.2-0.6,0.4c0,0.2,0.3,0.3,0.8,0.3c0.7,0,1.2,0.1,1.4,0.2c0.3,0.1,0.5,0.2,0.6,0.4c0.1,0.2,0.2,0.4,0.2,0.6
		c0,0,0,0.1,0,0.3h-0.5c0.1-0.1,0.2-0.2,0.2-0.4c0-0.2-0.3-0.3-0.8-0.4c-0.4-0.1-0.7-0.1-0.9-0.1c-0.2,0-0.4-0.1-0.4-0.1
		c-0.2-0.1-0.4-0.2-0.5-0.3c-0.1-0.1-0.2-0.3-0.2-0.5c0-0.2,0.1-0.3,0.2-0.5c0.1-0.1,0.3-0.3,0.5-0.4c0.2-0.1,0.4-0.1,0.6-0.2
		s0.4-0.1,0.6-0.1c1.6,0,2.7,0.9,3.2,2.8h0.5l0.5,0.5H40.8z"/>
</g>
<g>
	<path d="M31.9,168.9c-0.2-0.2-0.3-0.3-0.5-0.5c-0.2-0.1-0.4-0.3-0.7-0.4c-0.2-0.1-0.5-0.2-0.7-0.3c-0.2-0.1-0.5-0.1-0.8-0.1
		c-0.4,0-0.8,0.1-1.2,0.4c-0.4,0.3-0.7,0.6-0.7,1l0.2,0.5h0.5l0.5,0.5h-0.9v5.6l-0.5-0.5v-5h-0.8l-0.5-0.5h1.3l-0.4-0.4
		c-0.1-0.1-0.2-0.3-0.2-0.4c0-0.4,0.2-0.8,0.7-1.2c0.4-0.4,0.9-0.5,1.3-0.5c1.1,0,2.1,0.5,3.1,1.6L31.9,168.9z"/>
	<path d="M32.4,170.1v5.6l-0.3-0.4c0-0.1,0-0.1-0.1-0.2c0-0.1-0.1-0.2-0.2-0.3s-0.2-0.3-0.3-0.5c-0.1-0.2-0.3-0.3-0.4-0.5
		c-0.4-0.4-1-0.7-1.7-0.7l-0.7-1c1-0.7,2-1.3,3.1-1.7v-0.4h-3.5l-0.5-0.5h5l0.5,0.5H32.4z M31.9,171.3c-0.3,0.1-0.7,0.3-1,0.5
		s-0.7,0.4-1,0.7c0.9,0.4,1.6,1,2,1.8V171.3z"/>
	<path d="M33.1,170.1l-0.5-0.5h5.6l0.5,0.5H33.1z M38.3,172.5c0,0.3,0,0.6-0.1,0.9c-0.1,0.3-0.2,0.5-0.4,0.7
		c-0.4,0.5-0.9,0.7-1.5,0.7c-0.8,0-1.5-0.5-2.1-1.5c-0.1-0.2-0.3-0.6-0.5-1c-0.2-0.5-0.4-1-0.5-1.6l0.3,0.1c0.1,0.4,0.3,0.8,0.4,1.2
		c0.2,0.4,0.4,0.7,0.5,1c0.3,0.3,0.6,0.6,0.9,0.8c0.3,0.2,0.7,0.3,1,0.3c0.4,0,0.7-0.1,1-0.4c0.3-0.3,0.4-0.6,0.4-1
		c0-0.5-0.1-0.8-0.2-0.8c-0.5,0.6-1,0.9-1.6,0.9c-0.3,0-0.6-0.1-0.8-0.3c-0.2-0.2-0.4-0.5-0.4-0.8c0-0.6,0.3-0.8,0.8-0.8
		c0.2,0,0.3,0.1,0.5,0.2c0.1,0.1,0.2,0.3,0.2,0.5c0,0.2-0.1,0.3-0.2,0.6c0.2,0,0.5-0.1,0.7-0.4c0.1-0.1,0.2-0.2,0.3-0.4
		c0.1-0.1,0.2-0.3,0.2-0.4c0.1,0,0.2,0.1,0.4,0.2c0.1,0.1,0.3,0.3,0.4,0.5C38.2,171.8,38.3,172.2,38.3,172.5z"/>
	<path d="M39.8,170.1v5.6l-0.5-0.5v-3.9c0-0.2,0-0.3-0.1-0.4c-0.1-0.1-0.1-0.2-0.2-0.3s-0.2-0.2-0.4-0.2s-0.3-0.1-0.4-0.1l-0.5-0.5
		h0.6c0.3,0,0.5,0.1,0.7,0.2c0.2,0.1,0.3,0.4,0.4,0.7c0-0.1,0-0.2,0-0.4c0-0.2,0-0.3,0-0.6c0-0.2,0-0.4,0-0.5s0-0.3,0-0.4l0.2,0.2
		c0.1,0.4,0.2,0.7,0.3,0.8h0.5l0.5,0.5H39.8z"/>
	<path d="M45.7,170.1h-0.9v5.7l-0.6-0.7c0-1,0-1.7,0-2.1c0-0.3,0-0.5,0-0.7c0-0.2,0-0.4-0.1-0.6c-0.1-0.2-0.2-0.4-0.3-0.6
		c-0.3-0.4-0.7-0.7-1.1-0.7c-0.6,0-1,0.3-1.2,0.8c0.3-0.1,0.5-0.2,0.7-0.2c0.1,0,0.3,0,0.4,0.1c0.1,0,0.2,0.1,0.3,0.2
		c0.1,0.1,0.2,0.2,0.2,0.3c0.1,0.1,0.1,0.3,0.1,0.4c0,0.2-0.1,0.5-0.3,0.8c-0.2,0.3-0.4,0.6-0.8,1l-0.6-0.7c0.1-0.1,0.2-0.1,0.3-0.3
		c0.1-0.1,0.2-0.2,0.3-0.4c0.1-0.2,0.3-0.3,0.3-0.4c0.1-0.1,0.1-0.2,0.1-0.3c0-0.2-0.1-0.3-0.3-0.3c-0.1,0-0.2,0.1-0.5,0.2
		c-0.1,0.1-0.2,0.1-0.3,0.2c-0.1,0-0.2,0.1-0.2,0.1c-0.1,0-0.3-0.1-0.4-0.3c-0.1-0.2-0.2-0.3-0.2-0.5c0-0.4,0.2-0.8,0.6-1.1
		c0.2-0.1,0.4-0.2,0.6-0.3c0.2-0.1,0.4-0.1,0.6-0.1c0.5,0,1,0.2,1.3,0.6c0.2,0.3,0.4,0.7,0.7,1.4l-0.1-1.5c0-0.3,0-0.6,0-0.8
		c0-0.2,0-0.5,0-0.7l0.3,0.3c0,0.1,0,0.1,0,0.2c0,0.4,0.1,0.6,0.5,0.6c0,0,0.1,0,0.1,0L45.7,170.1z"/>
</g>
<g>
	<path d="M29.6,182.5c-0.4,0.1-0.7,0.2-1,0.4c-0.3,0.2-0.5,0.5-0.7,0.8c-0.2,0.3-0.3,0.6-0.4,1c-0.1,0.3-0.1,0.7-0.1,1.2
		c0,0.4,0.1,0.7,0.3,1c0.2,0.4,0.5,0.6,0.8,0.6h0c0,0,0.1,0,0.1,0c-0.1-0.1-0.2-0.2-0.2-0.3c-0.1-0.1-0.1-0.2-0.1-0.3
		c0-0.1,0-0.2,0.1-0.2c0-0.1,0.1-0.1,0.1-0.2s0.1-0.1,0.2-0.1c0.1,0,0.2,0,0.2,0c0.2,0,0.3,0.1,0.4,0.2s0.2,0.3,0.2,0.5
		c0,0.1,0,0.2-0.1,0.4c0,0.1-0.1,0.2-0.2,0.3c-0.1,0.1-0.2,0.1-0.3,0.2c-0.1,0-0.2,0.1-0.4,0.1c-0.6,0-1-0.3-1.3-0.9
		c-0.3-0.5-0.4-1.1-0.4-1.8c0-0.5,0.1-1,0.3-1.5c0.2-0.4,0.4-0.9,0.8-1.2c0.2-0.1,0.3-0.3,0.5-0.4s0.4-0.2,0.6-0.2L29.6,182.5z"/>
	<path d="M33.3,182.5v5.6l-0.3-0.4v0c-0.1-0.3-0.2-0.4-0.2-0.6c-0.1-0.1-0.2-0.3-0.3-0.4c-0.1-0.2-0.3-0.3-0.4-0.5
		c-0.4-0.4-1-0.7-1.7-0.7h0l-0.7-1c1-0.7,2-1.3,3.1-1.7v-0.4h-3.5l-0.5-0.5h5l0.5,0.5H33.3z M30.7,187c0-0.2,0.1-0.3,0.2-0.4
		c0.1-0.1,0.2-0.2,0.4-0.2c0.1,0,0.3,0.1,0.4,0.2s0.2,0.2,0.2,0.4c0,0.1-0.1,0.3-0.2,0.4c-0.1,0.1-0.2,0.2-0.4,0.2
		c-0.1,0-0.3-0.1-0.4-0.2C30.7,187.3,30.7,187.2,30.7,187z M32.8,183.7c-0.3,0.1-0.7,0.3-1,0.5s-0.7,0.4-1,0.7c0.9,0.4,1.6,1,2,1.8
		V183.7z"/>
	<path d="M35.2,182.5v5.6l-0.5-0.5v-3.9c0-0.2,0-0.3-0.1-0.4c-0.1-0.1-0.1-0.2-0.2-0.3s-0.2-0.2-0.4-0.2s-0.3-0.1-0.4-0.1l-0.5-0.5
		h0.6c0.3,0,0.5,0.1,0.7,0.2c0.2,0.1,0.3,0.4,0.4,0.7c0-0.1,0-0.2,0-0.4c0-0.2,0-0.3,0-0.6c0-0.2,0-0.4,0-0.5s0-0.3,0-0.4l0.2,0.2
		c0.1,0.4,0.2,0.7,0.3,0.8h0.5l0.5,0.5H35.2z"/>
	<path d="M40.5,182.5v5.6l-0.5-0.5v-3c0-0.2-0.1-0.4-0.2-0.5s-0.3-0.2-0.5-0.2c-0.3,0-0.4,0.2-0.4,0.6c0,0.1,0,0.2,0,0.3l-0.2,0.1
		c0-0.3-0.2-0.5-0.4-0.7c-0.2-0.2-0.5-0.3-0.8-0.3c-0.1,0-0.2,0-0.4,0.1c-0.1,0.1-0.2,0.1-0.3,0.2s-0.2,0.2-0.2,0.3
		c-0.1,0.1-0.1,0.3-0.1,0.4c0,0.4,0.2,0.7,0.7,0.8c-0.1-0.2-0.2-0.3-0.2-0.4c0-0.2,0.1-0.3,0.2-0.4c0.1-0.1,0.2-0.2,0.4-0.2
		c0.5,0,0.7,0.3,0.7,0.8c0,0.2-0.1,0.4-0.2,0.5s-0.3,0.2-0.6,0.2c-0.2,0-0.4,0-0.6-0.1c-0.2-0.1-0.3-0.2-0.5-0.3s-0.2-0.3-0.3-0.5
		c-0.1-0.2-0.1-0.4-0.1-0.6c0-0.4,0.1-0.7,0.3-1c0.2-0.3,0.5-0.5,0.8-0.5c0.4,0,0.8,0.2,1.2,0.7c0-0.2,0.1-0.3,0.2-0.5
		c0.1-0.1,0.3-0.2,0.4-0.2c0.4,0,0.7,0.3,0.9,0.9v-1.5h-4.1l-0.5-0.5H41l0.5,0.5H40.5z"/>
</g>
<g>
	<path d="M29.6,194.9c-0.4,0.1-0.7,0.2-1,0.4c-0.3,0.2-0.5,0.5-0.7,0.8c-0.2,0.3-0.3,0.6-0.4,1c-0.1,0.3-0.1,0.7-0.1,1.2
		c0,0.4,0.1,0.7,0.3,1c0.2,0.4,0.5,0.6,0.8,0.6h0c0,0,0.1,0,0.1,0c-0.1-0.1-0.2-0.2-0.2-0.3c-0.1-0.1-0.1-0.2-0.1-0.3
		c0-0.1,0-0.2,0.1-0.2c0-0.1,0.1-0.1,0.1-0.2s0.1-0.1,0.2-0.1c0.1,0,0.2,0,0.2,0c0.2,0,0.3,0.1,0.4,0.2s0.2,0.3,0.2,0.5
		c0,0.1,0,0.2-0.1,0.4c0,0.1-0.1,0.2-0.2,0.3c-0.1,0.1-0.2,0.1-0.3,0.2c-0.1,0-0.2,0.1-0.4,0.1c-0.6,0-1-0.3-1.3-0.9
		c-0.3-0.5-0.4-1.1-0.4-1.8c0-0.5,0.1-1,0.3-1.5c0.2-0.4,0.4-0.9,0.8-1.2c0.2-0.1,0.3-0.3,0.5-0.4s0.4-0.2,0.6-0.2L29.6,194.9z"/>
	<path d="M34.4,194.9h-0.9v5.6l-0.2-0.2c-0.3-1.1-0.7-1.7-1.4-2c-0.2,0.2-0.3,0.3-0.5,0.4s-0.3,0.1-0.4,0.1c-0.2,0-0.4-0.1-0.6-0.3
		c-0.2-0.2-0.2-0.4-0.2-0.6c0-0.3,0.1-0.5,0.3-0.7c0.2-0.2,0.4-0.2,0.7-0.2c0.2,0,0.3,0,0.4,0.1c0-0.5-0.1-0.8-0.3-1
		c-0.1-0.1-0.4-0.2-0.7-0.3c-0.2-0.1-0.3-0.1-0.5-0.2c-0.1-0.1-0.2-0.1-0.3-0.2c-0.1-0.1-0.3-0.3-0.5-0.5l-0.5-0.6h5.1L34.4,194.9z
		 M33,198.7v-3.8h-2.5c0.5,0.5,0.9,0.8,1.1,1.1c0.3,0.4,0.5,0.9,0.5,1.4c0,0,0,0.1,0,0.1s0,0.1,0,0.1c0.2,0.2,0.4,0.3,0.5,0.5
		C32.8,198.3,32.9,198.5,33,198.7L33,198.7z"/>
	<path d="M35.4,194.9v5.6l-0.5-0.5V196c0-0.2,0-0.3-0.1-0.4c-0.1-0.1-0.1-0.2-0.2-0.3s-0.2-0.2-0.4-0.2s-0.3-0.1-0.4-0.1l-0.5-0.5
		h0.6c0.3,0,0.5,0.1,0.7,0.2c0.2,0.1,0.3,0.4,0.4,0.7c0-0.1,0-0.2,0-0.4c0-0.2,0-0.3,0-0.6c0-0.2,0-0.4,0-0.5s0-0.3,0-0.4l0.2,0.2
		c0.1,0.4,0.2,0.7,0.3,0.8h0.5l0.5,0.5H35.4z"/>
	<path d="M40,194.9v5.6l-0.3-0.4c0-0.1,0-0.1-0.1-0.2c0-0.1-0.1-0.2-0.2-0.3s-0.2-0.3-0.3-0.5c-0.1-0.2-0.3-0.3-0.4-0.5
		c-0.4-0.4-1-0.7-1.7-0.7l-0.7-1c1-0.7,2-1.3,3.1-1.7v-0.4h-3.5l-0.5-0.5h5l0.5,0.5H40z M39.5,196.1c-0.3,0.1-0.7,0.3-1,0.5
		s-0.7,0.4-1,0.7c0.9,0.4,1.6,1,2,1.8V196.1z"/>
	<path d="M41.9,194.9v5.6l-0.5-0.5V196c0-0.2,0-0.3-0.1-0.4c-0.1-0.1-0.1-0.2-0.2-0.3s-0.2-0.2-0.4-0.2s-0.3-0.1-0.4-0.1l-0.5-0.5
		h0.6c0.3,0,0.5,0.1,0.7,0.2c0.2,0.1,0.3,0.4,0.4,0.7c0-0.1,0-0.2,0-0.4c0-0.2,0-0.3,0-0.6c0-0.2,0-0.4,0-0.5s0-0.3,0-0.4l0.2,0.2
		c0.1,0.4,0.2,0.7,0.3,0.8h0.5l0.5,0.5H41.9z"/>
	<path d="M47.6,194.9h-2.7c0,0.1,0.1,0.1,0.1,0.2c0,0.1,0.1,0.1,0.1,0.2c0.5,0.2,0.9,0.4,1,0.6c0.3,0.3,0.4,0.6,0.4,1.1
		c0,0.4-0.2,0.8-0.5,1.1c-0.2,0.2-0.6,0.4-1.1,0.5c0.3,0.2,0.7,0.5,1.1,0.8c0.4,0.3,0.8,0.8,1.3,1.2l0.1,0.6
		c-0.2-0.3-0.5-0.6-0.8-0.8c-0.3-0.3-0.6-0.5-1-0.7c-0.3-0.2-0.7-0.4-1.1-0.5c-0.4-0.2-0.7-0.3-1.1-0.4l-0.6-1.3
		c0.4,0.2,0.9,0.4,1.4,0.4c0.4,0,0.7,0,1-0.2c0.4-0.2,0.6-0.5,0.6-0.9c0-0.1,0-0.2,0-0.3s-0.1-0.2-0.1-0.3c-0.1-0.1-0.1-0.1-0.2-0.2
		c-0.1-0.1-0.2-0.1-0.3-0.1c0,0-0.1,0-0.1,0s-0.1,0-0.1,0c0,0.3-0.1,0.5-0.3,0.7c-0.2,0.2-0.4,0.3-0.7,0.3c-0.2,0-0.3,0-0.4-0.1
		c-0.1-0.1-0.2-0.2-0.2-0.4c0-0.3,0.1-0.6,0.4-0.8c0.2-0.2,0.5-0.3,0.8-0.4c0-0.1-0.1-0.2-0.3-0.4h-1.6l-0.5-0.5h3.4
		c0.1,0,0.1,0,0.2,0s0.2,0,0.2-0.1c0.2-0.1,0.3-0.2,0.3-0.3c0-0.1-0.1-0.2-0.3-0.3c-0.1,0-0.1,0-0.2-0.1c-0.1,0-0.2,0-0.2,0
		c-0.1,0-0.2,0-0.3,0c-0.1,0-0.3,0-0.4,0c-0.2,0-0.3,0-0.4,0c-0.1,0-0.2,0-0.3,0c-0.4,0-0.7-0.1-1-0.3c-0.4-0.2-0.5-0.5-0.5-0.9
		c0-0.1,0-0.2,0.1-0.4c0.1-0.2,0.2-0.2,0.2-0.2c0,0,0,0,0.1,0c0,0,0,0,0.1,0c-0.1,0.1-0.2,0.3-0.2,0.4c0,0.2,0.1,0.3,0.3,0.4
		c0.1,0.1,0.3,0.1,0.5,0.1c0.1,0,0.2,0,0.4,0c0.2,0,0.5,0,0.9-0.1c0.6,0,1.1,0.1,1.4,0.4c0.3,0.3,0.5,0.6,0.4,1.1h0.4L47.6,194.9z"
		/>
	<path d="M52.1,194.9v5.6l-0.5-0.5v-3c0-0.2-0.1-0.4-0.2-0.5s-0.3-0.2-0.5-0.2c-0.3,0-0.4,0.2-0.4,0.6c0,0.1,0,0.2,0,0.3l-0.2,0.1
		c0-0.3-0.2-0.5-0.4-0.7c-0.2-0.2-0.5-0.3-0.8-0.3c-0.1,0-0.2,0-0.4,0.1c-0.1,0.1-0.2,0.1-0.3,0.2s-0.2,0.2-0.2,0.3
		c-0.1,0.1-0.1,0.3-0.1,0.4c0,0.4,0.2,0.7,0.7,0.8c-0.1-0.2-0.2-0.3-0.2-0.4c0-0.2,0.1-0.3,0.2-0.4c0.1-0.1,0.2-0.2,0.4-0.2
		c0.5,0,0.7,0.3,0.7,0.8c0,0.2-0.1,0.4-0.2,0.5s-0.3,0.2-0.6,0.2c-0.2,0-0.4,0-0.6-0.1c-0.2-0.1-0.3-0.2-0.5-0.3s-0.2-0.3-0.3-0.5
		c-0.1-0.2-0.1-0.4-0.1-0.6c0-0.4,0.1-0.7,0.3-1c0.2-0.3,0.5-0.5,0.8-0.5c0.4,0,0.8,0.2,1.2,0.7c0-0.2,0.1-0.3,0.2-0.5
		c0.1-0.1,0.3-0.2,0.4-0.2c0.4,0,0.7,0.3,0.9,0.9v-1.5h-4.1l-0.5-0.5h5.6l0.5,0.5H52.1z"/>
	<path d="M60.1,194.9v5.7l-0.4-0.3l0-0.6c0-0.6-0.1-1.2-0.4-1.9c-0.4-0.7-0.9-1.1-1.4-1.1c-0.1,0-0.1,0-0.1,0
		c0.2,0.3,0.3,0.5,0.3,0.7c0,0.2-0.1,0.4-0.2,0.6c-0.1,0.2-0.3,0.2-0.5,0.2c-0.6,0-1-0.3-1-1c0-0.4,0.1-0.7,0.4-0.9
		c0.3-0.2,0.6-0.4,0.9-0.4c0.7,0,1.3,0.6,1.9,1.8h0v-2.9H56l-0.5-0.5h4.9l0.5,0.5H60.1z"/>
	<path d="M63.5,195.7c0,0.3-0.1,0.6-0.3,0.9c-0.2,0.2-0.5,0.4-0.8,0.4c-0.3,0-0.6-0.1-0.8-0.4s-0.4-0.5-0.4-0.9c0-0.2,0-0.3,0.1-0.4
		c0.1-0.1,0.1-0.3,0.3-0.4c0.2-0.3,0.5-0.4,0.8-0.4c0.3,0,0.6,0.1,0.8,0.4C63.4,195.1,63.5,195.4,63.5,195.7z M63.9,200.5
		c-0.2-0.2-0.4-0.4-0.6-0.6s-0.4-0.4-0.7-0.6s-0.4-0.3-0.7-0.5s-0.4-0.3-0.6-0.4v-1.2c0.4,0.3,0.8,0.8,1.3,1.3s0.9,1.1,1.2,1.5
		V200.5z M63,195.5c0-0.3-0.1-0.5-0.4-0.5c-0.2,0-0.4,0.1-0.6,0.3c-0.1,0.1-0.1,0.2-0.2,0.3c0,0.1-0.1,0.2-0.1,0.4
		c0,0.3,0.1,0.4,0.3,0.4c0.2,0,0.5-0.1,0.7-0.3C62.9,196,63,195.7,63,195.5z"/>
</g>
<text transform="matrix(0.9485 0 0 1 65.2261 150.9189)" class="st16 st14 st17">-</text>
<text transform="matrix(0.9485 0 0 1 65.2261 163.3105)" class="st16 st14 st17">-</text>
<text transform="matrix(0.9485 0 0 1 65.2261 175.7041)" class="st16 st14 st17">-</text>
<text transform="matrix(0.9485 0 0 1 65.2261 188.0938)" class="st16 st14 st17">-</text>
<text transform="matrix(0.9485 0 0 1 65.2261 200.4854)" class="st16 st14 st17">-</text>
<text transform="matrix(0.9485 0 0 1 80.0723 150.9385)" class="st14 st17">{{father}}</text>
<text transform="matrix(0.9485 0 0 1 80.0723 163.3301)" class="st14 st17">{{class}}</text>
<text transform="matrix(0.9485 0 0 1 80.0723 175.7217)" class="st14 st17">{{section}}</text>
<text transform="matrix(0.9485 0 0 1 80.0723 188.1133)" class="st14 st17">{{roll}}</text>
<text transform="matrix(0.9485 0 0 1 80.0723 200.5049)" class="st14 st17">{{phone}}</text>
<path class="st18" d="M153.4,0v44.7c-0.7,1.1-1.4,2.2-2.1,3.3c-11.2,17-27.4,30-46.5,36.5c-0.6,0.2-1.2,0.4-1.9,0.6
	c-8.3,2.7-17.1,4.1-26.3,4.1c-9.1,0-18-1.4-26.3-4.1c-0.6-0.2-1.3-0.4-1.9-0.6C28.3,77.6,11.2,63.4,0,44.7V0H153.4z"/>
<g>
	<defs>
		<path id="SVGID_19_" d="M151.3,47.8c-6.5,13.2-16.5,24.3-29.1,31.7c-0.5,0.3-0.9,0.5-1.4,0.8c-4.9,2.8-10.2,5-15.9,6.5
			c1.4-0.2,2.8-0.5,4.3-0.7c7.2-1.5,13.9-4.1,20.1-7.5c0.5-0.3,0.9-0.5,1.4-0.8c9-5.3,16.7-12.5,22.7-21V43.3
			C152.8,44.8,152.1,46.3,151.3,47.8"/>
	</defs>
	<clipPath id="SVGID_2_">
		<use xlink:href="#SVGID_19_"  style="overflow:visible;"/>
	</clipPath>
	
		<linearGradient id="SVGID_4_" gradientUnits="userSpaceOnUse" x1="-272.2147" y1="471.614" x2="-271.7474" y2="471.614" gradientTransform="matrix(103.59 0 0 -103.59 28303.7051 48919.5156)">
		<stop  offset="0" style="stop-color:#0A7DBD"/>
		<stop  offset="3.346750e-02" style="stop-color:#0A7DBD"/>
		<stop  offset="0.9679" style="stop-color:#2C2F72"/>
		<stop  offset="1" style="stop-color:#2C2F72"/>
	</linearGradient>
	<rect x="105" y="43.3" style="clip-path:url(#SVGID_2_);fill:url(#SVGID_4_);" width="48.4" height="43.6"/>
</g>
<g>
	<defs>
		<path id="SVGID_22_" d="M0,56.8c6.1,8.5,13.8,15.7,22.9,21c0.5,0.3,0.9,0.5,1.4,0.8c6.2,3.5,13,6,20.2,7.5
			c1.4,0.3,2.9,0.5,4.3,0.7c-5.7-1.5-11-3.7-16-6.5c-0.5-0.3-0.9-0.5-1.4-0.8C18.7,72.1,8.6,61,2.1,47.8c-0.7-1.5-1.4-3-2.1-4.6
			V56.8z"/>
	</defs>
	<clipPath id="SVGID_6_">
		<use xlink:href="#SVGID_22_"  style="overflow:visible;"/>
	</clipPath>
	
		<linearGradient id="SVGID_8_" gradientUnits="userSpaceOnUse" x1="-272.4036" y1="471.614" x2="-271.9324" y2="471.614" gradientTransform="matrix(-103.59 0 0 -103.59 -28169.4668 48919.5156)">
		<stop  offset="0" style="stop-color:#0A7DBD"/>
		<stop  offset="3.346750e-02" style="stop-color:#0A7DBD"/>
		<stop  offset="0.9679" style="stop-color:#2C2F72"/>
		<stop  offset="1" style="stop-color:#2C2F72"/>
	</linearGradient>
	<rect x="0" y="43.3" style="clip-path:url(#SVGID_6_);fill:url(#SVGID_8_);" width="48.8" height="43.6"/>
</g>
<g>
	<defs>
		<path id="SVGID_25_" d="M56,51.7c-4,0-7.2,3.4-7.2,7.6v53.4c0,4.2,3.2,7.6,7.2,7.6h41.8c4,0,7.2-3.4,7.2-7.6V59.2
			c0-4.2-3.2-7.6-7.2-7.6H56z"/>
	</defs>
	<clipPath id="SVGID_10_">
		<use xlink:href="#SVGID_25_"  style="overflow:visible;"/>
	</clipPath>
	
		<linearGradient id="SVGID_12_" gradientUnits="userSpaceOnUse" x1="-271.6234" y1="472.0688" x2="-271.1308" y2="472.0688" gradientTransform="matrix(0 142.0845 142.0845 0 -66996.7734 38645.3984)">
		<stop  offset="0" style="stop-color:#0A7DBD"/>
		<stop  offset="3.346750e-02" style="stop-color:#0A7DBD"/>
		<stop  offset="0.9679" style="stop-color:#2C2F72"/>
		<stop  offset="1" style="stop-color:#2C2F72"/>
	</linearGradient>
	<rect x="48.8" y="51.7" style="clip-path:url(#SVGID_10_);fill:url(#SVGID_12_);" width="56.2" height="68.5"/>
</g>
<rect x="0.4" y="219.5" class="st13" width="153" height="22.2"/>
<rect x="0.4" y="216.8" class="st22" width="153" height="2.7"/>
<path class="st18" d="M43,241.7H0v-42.4h0c0,0,11,4,18.1,14.4c0.7,1,1.3,2,1.8,3c1.4,2.6,2.5,5.5,3.2,8.7
	C25.8,237.8,36,241,43,241.7"/>
<g>
	<defs>
		<path id="SVGID_28_" d="M0.4,199.3v1.9c4.1,2.1,10.4,6.1,15.1,12.6c0.7,1,1.4,2,2,3c1.5,2.6,2.7,5.5,3.4,8.7
			c2.8,12.4,13.7,15.5,21.2,16.2h1c-6.9-0.7-17.1-3.9-19.7-16.2c-0.7-3.3-1.8-6.2-3.2-8.7c-0.6-1.1-1.2-2.1-1.8-3
			C11.3,203.3,0.4,199.3,0.4,199.3L0.4,199.3z"/>
	</defs>
	<clipPath id="SVGID_14_">
		<use xlink:href="#SVGID_28_"  style="overflow:visible;"/>
	</clipPath>
	
		<linearGradient id="SVGID_16_" gradientUnits="userSpaceOnUse" x1="-272.3937" y1="473.2018" x2="-271.8962" y2="473.2018" gradientTransform="matrix(50.7857 89.3571 89.3571 -50.7857 -28442.2754 48568.5898)">
		<stop  offset="0" style="stop-color:#0A7DBD"/>
		<stop  offset="3.346750e-02" style="stop-color:#0A7DBD"/>
		<stop  offset="0.7238" style="stop-color:#2C2F72"/>
		<stop  offset="1" style="stop-color:#2C2F72"/>
	</linearGradient>
	<polygon style="clip-path:url(#SVGID_14_);fill:url(#SVGID_16_);" points="32.6,180 60.3,231.3 10.8,261 -16.9,209.6 	"/>
</g>
<path class="st18" d="M110.8,241.7h42.6v-42.4h0c0,0-10.9,4-17.9,14.4c-0.6,1-1.3,2-1.8,3c-1.4,2.6-2.5,5.5-3.2,8.7
	C127.8,237.8,117.7,241,110.8,241.7"/>
<g>
	<defs>
		<path id="SVGID_31_" d="M153.3,199.3c0,0-10.9,4-17.9,14.4c-0.6,1-1.3,2-1.8,3c-1.4,2.6-2.5,5.5-3.2,8.7
			c-2.6,12.4-12.7,15.5-19.7,16.2h1c7.4-0.7,18.4-3.9,21.2-16.2c0.7-3.3,1.9-6.2,3.4-8.7c0.6-1.1,1.3-2.1,2-3
			c4.7-6.5,11-10.5,15.1-12.6L153.3,199.3L153.3,199.3z"/>
	</defs>
	<clipPath id="SVGID_18_">
		<use xlink:href="#SVGID_31_"  style="overflow:visible;"/>
	</clipPath>
	
		<linearGradient id="SVGID_20_" gradientUnits="userSpaceOnUse" x1="-272.4881" y1="473.0356" x2="-271.9906" y2="473.0356" gradientTransform="matrix(-50.7857 89.3571 -89.3571 -50.7857 28576.373 48568.5898)">
		<stop  offset="0" style="stop-color:#0A7DBD"/>
		<stop  offset="3.346750e-02" style="stop-color:#0A7DBD"/>
		<stop  offset="0.7238" style="stop-color:#2C2F72"/>
		<stop  offset="1" style="stop-color:#2C2F72"/>
	</linearGradient>
	<polygon style="clip-path:url(#SVGID_18_);fill:url(#SVGID_20_);" points="121.2,180 93.5,231.3 143,261 170.7,209.6 	"/>
</g>
<g>
	<path class="st3" d="M21,12h-2.2v9.3h-2.3l0,0l0,0l-5.7-3.5v-2.3c1.8-1.3,3.7-2.2,5.7-2.6V12l-5.7,0v-1.9h10.2V12H21z M16.6,19.3
		v-3.7c-1.3,0.5-2.3,1-3.2,1.6L16.6,19.3z"/>
	<path class="st3" d="M29.8,22.3h-2.5c-0.1-1.1-0.2-1.6-0.3-2c-0.1-0.5-0.3-0.9-0.6-1.5s-0.5-0.9-0.8-1.3c-0.3-0.3-0.7-0.5-1.1-0.5
		s-0.7,0.1-0.9,0.4c-0.2,0.3-0.3,0.6-0.3,0.9c0,0.3,0,0.7,0.1,1.2h-2.4c-0.1-0.7-0.1-1-0.1-1.4c0-0.8,0.3-1.6,0.9-2.2
		c0.6-0.6,1.4-0.9,2.4-0.9c1.5,0,3.9,2,3.9,2V12h-8v-1.9h11.4V12h-1.1v10.2H29.8z"/>
	<path class="st3" d="M41.3,16.4c0,1.4-0.4,2.5-1.2,3.4c-0.8,0.9-2,1.4-3.4,1.4c-1.6,0-2.8-0.6-3.8-1.6c-1-1-1.4-2.5-1.4-4.4
		c0-0.6,0-1,0.1-1.4h2.3c0,0.4-0.1,0.8-0.1,1.3c0,1.3,0.3,2.3,0.8,3.1c0.5,0.7,1.3,1,2.2,1c0.8,0,1.4-0.3,2-0.7
		c0.4-0.5,0.6-1.2,0.6-2c-0.6,0.3-1.1,0.4-1.8,0.4c-0.8,0-1.6-0.3-2-0.7c-0.4-0.5-0.7-1.2-0.7-2v-2h-4.5v-1.9h12.5V12H37v2
		c0,0.6,0.3,0.8,0.8,0.8c0.6,0,1.6-0.4,2.9-1C41.1,14.6,41.3,15.5,41.3,16.4z M38.1,22.9c0.2,0.3,0.3,0.6,0.3,0.9s-0.1,0.7-0.3,0.9
		c-0.2,0.3-0.6,0.4-0.9,0.4s-0.7-0.1-0.9-0.4c-0.2-0.3-0.3-0.6-0.3-0.9s0.1-0.7,0.3-0.9c0.2-0.3,0.6-0.4,0.9-0.4
		C37.5,22.5,37.9,22.6,38.1,22.9z"/>
	<path class="st3" d="M48,12h-1.8v9.3h-2.3v-7.9c0,0,0-0.7-0.1-0.8c-0.1-0.1-0.3-0.2-0.8-0.6h-0.2v-1.9h0.6c0,0,0.7,0.6,0.9,0.9
		c-0.1-0.7-0.2-1.1-0.3-1.6V9.2h2.3v0.9h1.1V12H48z"/>
	<path class="st3" d="M63.2,16.4c0,1.4-0.4,2.5-1.3,3.4c-0.9,0.9-2.1,1.4-3.6,1.4c-1.6,0-2.9-0.6-4-1.6s-1.5-2.5-1.5-4.4
		c0-0.6,0-1,0.1-1.4h2.4c0,0.4-0.1,0.8-0.1,1.3c0,1.3,0.3,2.3,0.9,3.1c0.5,0.7,1.4,1,2.3,1c0.9,0,1.5-0.3,2.1-0.7
		c0.4-0.5,0.6-1.2,0.6-2c-0.6,0.3-1.2,0.4-1.8,0.4c-0.9,0-1.6-0.3-2.1-0.7c-0.5-0.5-0.8-1.1-0.8-2v-2h-4.5v-1.9h9.1
		c0-0.2,0-0.4,0-0.6c0-0.7-0.3-0.9-1.1-0.9c-0.3,0-0.9,0.1-1.8,0.2C57.2,8.9,56.6,9,56.2,9c-0.9,0-1.7-0.1-2.1-0.4V6.9
		c0.4,0.2,1.1,0.3,1.8,0.3c0.3,0,1-0.1,1.9-0.2c1-0.1,1.7-0.2,2.1-0.2c0.9,0,1.6,0.2,2.1,0.7s0.7,1,0.7,1.9c0,0.2,0,0.5-0.1,0.8h1.6
		V12h-5.7v2c0,0.6,0.3,0.8,0.9,0.8c0.6,0,1.6-0.4,3-1C63.1,14.6,63.2,15.5,63.2,16.4z"/>
	<path class="st3" d="M79.3,16.9c0,1.1-0.4,2.1-1.2,3.1c-0.8,0.9-1.8,1.4-2.9,1.4c-0.8,0-1.6-0.3-2.1-0.7s-0.8-1.2-0.8-2v-1.4
		c-0.2,0.7-0.7,1.2-1.3,1.7c-0.7,0.5-1.4,0.7-2.4,0.7s-1.8-0.2-2.4-0.7s-0.8-1.1-0.8-2V12h-1.1v-1.9h17.1V12h-6.8v0.9l1.6,0.5
		c1.1,0.4,2.1,0.7,2.5,1.3C79,15.3,79.3,15.9,79.3,16.9z M68.9,13c1,0.3,1.8,0.6,2.3,0.8c0.5,0.3,0.8,0.7,1.1,1.2V12h-4.5v0.7
		L68.9,13z M68.5,18c0.5,0,0.7-0.1,0.9-0.4c0.2-0.3,0.3-0.6,0.3-1c0-0.3-0.1-0.5-0.2-0.6c-0.1-0.2-0.2-0.3-0.5-0.3
		c-0.1-0.1-0.5-0.2-0.8-0.3l-0.6-0.3v2C67.7,17.7,68.1,18,68.5,18z M75.4,19.9c0.6,0,1-0.3,1.4-0.8c0.3-0.6,0.6-1.1,0.6-1.7
		c0-0.4-0.1-0.7-0.3-0.8c-0.2-0.2-0.6-0.4-1.1-0.6l-1.3-0.4v3.4C74.6,19.6,74.9,19.9,75.4,19.9z"/>
	<path class="st3" d="M89.3,12h-1.1v9.3h-2.3V12h-1.1v-1.9h1.1V9.4c0-1.2,0.4-2,1.2-2.6S89.1,6,90.4,6C91.2,6,92.1,6,93,6.2
		c0.9,0.2,1.6,0.4,2,0.6v2.3c-0.6-0.2-1.3-0.4-2.1-0.5c-0.9-0.2-1.7-0.3-2.4-0.3c-1.5,0-2.3,0.6-2.3,1.6v0.2h1.1V12z"/>
	<path class="st3" d="M99.6,12h-1.1v9.3h-2.3l0,0l0,0l-5.7-3.5v-2.3c1.8-1.3,3.7-2.2,5.7-2.6V12l-6.8,0v-1.9h10.2V12z M96.2,19.3
		v-3.7c-1.3,0.5-2.3,1-3.2,1.6L96.2,19.3z"/>
	<path class="st3" d="M102.4,19.5h-2.8V12h-1.1v-1.9h10.2V12h-6.8v4.1c1.2-1.1,2.2-1.9,3.1-2.2h2.5v7.5h-2.3v-4.8
		C104.2,17.5,102.4,19.5,102.4,19.5z"/>
	<path class="st3" d="M114.4,12h-5.7v-1.9h5.7V12z M112.4,21.3h-2.6c0.8-1,1.1-1.9,1.1-2.7c0-0.4-0.2-1.1-0.6-2.1s-0.6-1.7-0.6-2.2
		s0.1-0.9,0.3-1.3s0.6-0.8,1-1h2.6c-0.5,0.2-0.8,0.5-1,0.8c-0.2,0.4-0.5,0.8-0.5,1.4c0,0.5,0.2,1.2,0.6,2.2c0.3,0.9,0.6,1.7,0.6,2.1
		C113.5,19.4,113.1,20.4,112.4,21.3z"/>
	<path class="st3" d="M119,12h-1.3v9.3h-3.4v-7.9c0,0,0.6-0.7,0.5-0.8c-0.1-0.1-0.3-0.2-0.8-0.6h-0.8v-1.9h1.1c0,0,0.7,0.6,0.9,0.9
		c-0.1-0.6-0.2-1.1,0.2-1.6V9.2h2.3v0.9h1.1V12H119z"/>
	<path class="st3" d="M131,22.3h-3v-5.4c0.5-0.8,0.1-1.2-0.6-1.2c-0.7,0-1,0.5-1.7,1.4v0.6h-2.3v-0.4c0-0.8-0.3-1.2-1-1.2
		c-0.3,0-0.6,0.1-0.8,0.4c-0.2,0.3-0.2,0.5-0.2,0.9c0,0.8,0.4,1.2,1.3,1.2c0.2,0,0.4,0,0.7-0.1v1.8c-0.3,0-0.7,0.1-1,0.1
		c-1.1,0-1.9-0.3-2.6-0.9c-0.7-0.5-0.9-1.3-0.9-2.3c0-0.9,0.3-1.6,0.9-2.1c0.6-0.5,1.3-0.8,2.4-0.8c0.7,0,1.2,0.2,1.7,0.4
		c0.4,0.3,0.7,0.6,0.8,1c0.1-0.4,0.3-0.7,0.7-1c0.3-0.3,0.8-0.4,1.3-0.4s1,0.2,1.2,0.4v-1.7h-10.2v-1.9h14.8v1.9h-1.1v9.3H131z"/>
	<path class="st3" d="M142.9,12h-1.3v9.3h-2.7l-6.4-2l0,0v-2.1l2.8-1.6l-1.7-1.4V12h-2.3v-0.9h11.4V12H142.9z M136.1,21.8
		c0.2,0.3,0.5,0.6,0.5,0.8c0,0.3-0.1,0.7-0.5,0.8c-0.2,0.3-0.6,0.4-0.9,0.4s-0.7-0.1-0.9-0.4c-0.2-0.3-0.5-0.6-0.5-0.8
		c0-0.3,0.1-0.7,0.5-0.8c0.2-0.3,0.6-0.4,0.9-0.4S135.9,21.6,136.1,21.8z M138.2,14.2v2l-2.1,1.5l3.2,1.4v-7h-4.2L138.2,14.2z"/>
</g>
<g>
	<path class="st3" d="M48,31.9c0-0.3,0.1-0.6,0.3-0.9c0.2-0.2,0.5-0.4,0.9-0.4c-0.3-0.1-0.6-0.3-0.7-0.6c-0.2,0.5-0.6,0.7-1.2,0.7
		c-0.3,0-0.6-0.1-0.9-0.2v-1.1c0.3,0.1,0.6,0.2,0.9,0.2c0.5,0,0.7-0.3,0.7-0.9H46v-1h6.2v1h-0.7c0,0.2,0.1,0.4,0.1,0.6
		c0,0.4-0.1,0.7-0.4,0.9c-0.2,0.3-0.6,0.4-1,0.5c0.3,0.1,0.6,0.3,0.7,0.5c0.2,0.2,0.3,0.5,0.3,0.8c0,0.7-0.4,1.1-1.1,1.3l1.1,0.3v1
		l-3-1v-1H49c0.7,0,1.1-0.2,1.1-0.7c0-0.2,0-0.3-0.1-0.4c-0.1-0.1-0.2-0.1-0.4-0.1c-0.1,0-0.3,0-0.3,0.1c-0.1,0.1-0.1,0.2-0.1,0.4
		c0,0.1,0,0.2,0,0.3h-1.1C48,32.2,48,32.1,48,31.9z M49.9,29.7c0.3,0,0.5-0.2,0.5-0.6c0-0.1,0-0.3,0-0.4h-1.1
		C49.2,29.3,49.4,29.7,49.9,29.7z"/>
	<path class="st3" d="M54.6,28.6h-0.8v5.3h-1.3v-4.8c0-0.2,0-0.4-0.1-0.5c-0.1-0.1-0.2-0.1-0.4-0.1h-0.3v-1h0.5
		c0.2,0,0.4,0.1,0.5,0.3c-0.1-0.2-0.2-0.5-0.2-0.8v-0.2h1.2v0.8h0.8L54.6,28.6L54.6,28.6z"/>
	<path class="st3" d="M57,28.6h-0.8v5.3h-1.3v-5.3h-0.8v-1h0.8v-0.4c0-0.6,0.2-1.1,0.6-1.5c0.4-0.3,1-0.5,1.7-0.5
		c0.4,0,0.9,0.1,1.4,0.2c0.5,0.1,0.8,0.2,1.1,0.3v1c-0.3-0.1-0.6-0.2-1.1-0.3c-0.4-0.1-0.9-0.1-1.3-0.1c-0.8,0-1.2,0.3-1.2,0.9v0.3
		h0.8L57,28.6L57,28.6z"/>
	<path class="st3" d="M57.5,31.4l0.7-0.4c-0.2-0.4-0.6-0.7-0.9-0.8v-0.5c0-0.5,0.2-1,0.5-1.6c0.4-0.4,0.9-0.6,1.5-0.6
		c0.7,0,1.1,0.2,1.4,0.7v-1.3h1.3v0.7h0.8v1h-0.8v5.3h-1.3v-3.1l-3.2,2V31.4z M58.5,29.6c0.3,0.1,0.5,0.4,0.7,0.7l1.5-0.8
		c-0.2-0.6-0.5-0.9-1.1-0.9c-0.3,0-0.6,0.1-0.8,0.3S58.5,29.3,58.5,29.6z"/>
	<path class="st3" d="M68.7,28.6h-6.4v-1h6.4V28.6z M68.2,31c0,0.8-0.3,1.5-0.8,2c-0.5,0.5-1.2,0.7-1.9,0.7c-0.9,0-1.6-0.3-2.1-0.8
		c-0.5-0.5-0.8-1.3-0.8-2.5c0-0.2,0-0.5,0-0.7h1.2c0,0.2,0,0.4,0,0.7c0,0.6,0.1,1.2,0.4,1.6c0.3,0.4,0.7,0.6,1.2,0.6
		c0.5,0,0.8-0.1,1-0.4c0.2-0.3,0.4-0.6,0.4-1.1c0-0.3,0-0.5-0.1-0.6c-0.1-0.1-0.2-0.2-0.4-0.2c-0.1,0-0.3,0.1-0.3,0.2
		C66,30.5,66,30.7,66,30.8c0,0.2,0,0.4,0.1,0.6h-1.2c-0.1-0.2-0.1-0.5-0.1-0.7c0-0.5,0.1-0.8,0.4-1.1c0.3-0.3,0.7-0.4,1.2-0.4
		c0.6,0,1,0.2,1.4,0.6C68.1,30,68.2,30.5,68.2,31z"/>
	<path class="st3" d="M73.6,32h-2.5v-1.1h2.5V32z"/>
	<path class="st3" d="M77.9,31.9c-0.1,0.1-0.1,0.2-0.1,0.4c0,0.2,0.1,0.3,0.2,0.4c0.1,0.1,0.3,0.2,0.5,0.2c0.3,0,0.5-0.1,0.7-0.3
		s0.3-0.4,0.3-0.7s-0.1-0.6-0.2-0.8c-0.2-0.3-0.3-0.5-0.5-0.7c-0.2-0.2-0.4-0.4-0.6-0.6c-0.2-0.2-0.4-0.4-0.5-0.7
		c-0.1-0.3-0.2-0.5-0.2-0.8c0-0.2,0-0.4,0.1-0.6h1.2c0,0.1-0.1,0.3-0.1,0.4c0,0.2,0.1,0.4,0.2,0.6c0.2,0.2,0.3,0.4,0.6,0.6
		c0.2,0.2,0.4,0.4,0.6,0.7c0.2,0.3,0.4,0.5,0.6,0.9c0.2,0.3,0.2,0.7,0.2,1c0,0.6-0.2,1.1-0.6,1.6c-0.4,0.4-0.9,0.6-1.6,0.6
		c-0.6,0-1.1-0.1-1.5-0.4c-0.3-0.3-0.5-0.7-0.5-1.2s0.2-0.9,0.5-1.1c0.3-0.3,0.7-0.4,1.3-0.4v1C78.2,31.8,78,31.8,77.9,31.9z"/>
	<path class="st3" d="M83,30.6c0.6,0,1,0.2,1.3,0.5c0.3,0.3,0.5,0.7,0.5,1.1c0,0.2,0,0.4-0.1,0.6c0.3,0,0.4-0.2,0.6-0.4
		c0.1-0.2,0.2-0.4,0.2-0.7c0-0.3-0.1-0.5-0.2-0.8s-0.3-0.4-0.5-0.5s-0.5-0.3-0.7-0.4c-0.3-0.1-0.5-0.2-0.8-0.4
		c-0.3-0.1-0.5-0.3-0.7-0.4s-0.4-0.3-0.5-0.6c-0.1-0.2-0.2-0.5-0.2-0.8c0-0.1,0-0.1,0-0.2h1.2v0.1c0,0.2,0.1,0.3,0.2,0.5
		c0.1,0.2,0.3,0.3,0.5,0.4c0.2,0.1,0.5,0.2,0.7,0.4c0.3,0.1,0.5,0.3,0.8,0.4c0.3,0.1,0.5,0.3,0.7,0.5s0.4,0.4,0.5,0.8
		c0.1,0.4,0.2,0.6,0.2,1c0,0.7-0.2,1.2-0.6,1.7c-0.4,0.4-1,0.6-1.7,0.6h-0.9v-0.9c0.1-0.2,0.2-0.4,0.2-0.6c0-0.2-0.1-0.3-0.2-0.4
		c-0.1-0.1-0.3-0.2-0.5-0.2s-0.3,0.1-0.5,0.2c-0.1,0.1-0.2,0.3-0.2,0.5c0,0.1,0,0.3,0.1,0.4c0.1,0.1,0.2,0.2,0.3,0.2v1
		c-0.5,0-0.9-0.1-1.2-0.4c-0.3-0.3-0.5-0.6-0.5-1.1s0.2-0.9,0.5-1.2C82,30.8,82.4,30.6,83,30.6z"/>
	<path class="st3" d="M88.8,30.6c0.6,0,1,0.2,1.3,0.5c0.3,0.3,0.5,0.7,0.5,1.1c0,0.2,0,0.4-0.1,0.6c0.3,0,0.4-0.2,0.6-0.4
		c0.1-0.2,0.2-0.4,0.2-0.7c0-0.3-0.1-0.5-0.2-0.8c-0.1-0.3-0.3-0.4-0.5-0.5s-0.5-0.3-0.7-0.4c-0.3-0.1-0.5-0.2-0.8-0.4
		c-0.3-0.1-0.5-0.3-0.7-0.4s-0.4-0.3-0.5-0.6c-0.1-0.2-0.2-0.5-0.2-0.8c0-0.1,0-0.1,0-0.2h1.2v0.1c0,0.2,0.1,0.3,0.2,0.5
		c0.1,0.2,0.3,0.3,0.5,0.4c0.2,0.1,0.5,0.2,0.7,0.4c0.3,0.1,0.5,0.3,0.8,0.4c0.3,0.1,0.5,0.3,0.7,0.5s0.4,0.4,0.5,0.8
		c0.1,0.4,0.2,0.6,0.2,1c0,0.7-0.2,1.2-0.6,1.7c-0.4,0.4-1,0.6-1.7,0.6h-0.9v-0.9c0.1-0.2,0.2-0.4,0.2-0.6c0-0.2-0.1-0.3-0.2-0.4
		c-0.1-0.2-0.3-0.3-0.5-0.3s-0.3,0.1-0.5,0.2c-0.1,0.1-0.2,0.3-0.2,0.5c0,0.1,0,0.3,0.1,0.4c0.1,0.1,0.2,0.2,0.3,0.2v1
		c-0.5,0-0.9-0.1-1.2-0.4c-0.3-0.3-0.5-0.6-0.5-1.1c0-0.5,0.2-0.9,0.5-1.2C87.8,30.8,88.3,30.6,88.8,30.6z"/>
	<path class="st3" d="M94.4,31.9c-0.1,0.1-0.1,0.2-0.1,0.4c0,0.2,0.1,0.3,0.2,0.4c0.1,0.1,0.3,0.2,0.5,0.2c0.3,0,0.5-0.1,0.7-0.3
		s0.3-0.4,0.3-0.7s-0.1-0.6-0.2-0.8c-0.2-0.3-0.3-0.5-0.5-0.7c-0.2-0.2-0.4-0.4-0.6-0.6c-0.2-0.2-0.4-0.4-0.5-0.7
		c-0.1-0.3-0.2-0.5-0.2-0.8c0-0.2,0-0.4,0.1-0.6h1.2c0,0.1-0.1,0.3-0.1,0.4c0,0.2,0.1,0.4,0.2,0.6c0.2,0.2,0.3,0.4,0.6,0.6
		c0.2,0.2,0.4,0.4,0.6,0.7c0.2,0.3,0.4,0.5,0.6,0.9c0.2,0.3,0.2,0.7,0.2,1c0,0.6-0.2,1.1-0.6,1.6c-0.4,0.4-0.9,0.6-1.6,0.6
		c-0.6,0-1.1-0.1-1.5-0.4c-0.3-0.3-0.5-0.7-0.5-1.2s0.2-0.9,0.5-1.1c0.3-0.3,0.7-0.4,1.3-0.4v1C94.6,31.8,94.5,31.8,94.4,31.9z"/>
	<path class="st3" d="M104.2,28.6h-4.5v-1h2.8v-0.1v-0.1c0-0.2,0-0.3-0.1-0.4c-0.1-0.1-0.2-0.1-0.4-0.1c-0.1,0-0.3,0-0.6,0.1
		c-0.3,0.1-0.5,0.1-0.7,0.1c-0.3,0-0.6-0.1-0.8-0.2v-1c0.2,0.1,0.4,0.2,0.7,0.2c0.2,0,0.4,0,0.7-0.1c0.3-0.1,0.6-0.1,0.8-0.1
		c0.5,0,0.9,0.1,1.1,0.4c0.3,0.3,0.4,0.6,0.4,1.1c0,0.1,0,0.3,0,0.4h0.6L104.2,28.6L104.2,28.6z M103.6,34h-1.7l-1.7-1.1v-1h0.9
		c0.4,0,0.7-0.1,0.9-0.3c0.2-0.2,0.3-0.4,0.3-0.7c0-0.2-0.1-0.4-0.2-0.5c-0.1-0.1-0.2-0.2-0.4-0.2c-0.2,0-0.3,0.1-0.4,0.2
		c-0.1,0.1-0.2,0.2-0.2,0.4c0,0.2,0,0.3,0,0.4h-1.2c-0.1-0.2-0.1-0.4-0.1-0.6c0-0.4,0.2-0.8,0.5-1c0.3-0.3,0.7-0.4,1.3-0.4
		c0.6,0,1,0.2,1.4,0.5c0.3,0.3,0.5,0.7,0.5,1.2c0,0.5-0.2,0.9-0.5,1.2c-0.3,0.3-0.8,0.5-1.3,0.6l1.8,1.2L103.6,34L103.6,34z"/>
	<path class="st3" d="M104.8,30.2c-0.3-0.3-0.5-0.6-0.5-1.1c0-0.4,0.2-0.8,0.5-1.1c0.3-0.3,0.7-0.4,1.2-0.4s0.9,0.1,1.2,0.4
		c0.3,0.3,0.5,0.6,0.5,1.1c0,0.4-0.2,0.8-0.5,1.1c-0.3,0.3-0.7,0.4-1.2,0.4S105.1,30.5,104.8,30.2z M104.5,32v-1.3l3.3,2v1.2
		L104.5,32z M106.3,29.5c0.1-0.1,0.1-0.3,0.1-0.4c0-0.2,0-0.3-0.1-0.4c-0.1-0.1-0.2-0.2-0.4-0.2c-0.2,0-0.3,0.1-0.4,0.2
		c-0.1,0.1-0.1,0.3-0.1,0.4c0,0.2,0,0.3,0.1,0.4c0.1,0.1,0.2,0.2,0.4,0.2C106,29.6,106.2,29.6,106.3,29.5z"/>
</g>
<g>
	<path class="st3" d="M32.7,41.1h-5.9v-0.9h5.9V41.1z M32.3,43.3c0,0.7-0.2,1.3-0.7,1.8c-0.5,0.4-1.1,0.7-1.8,0.7
		c-0.8,0-1.4-0.2-1.9-0.7c-0.5-0.5-0.7-1.2-0.7-2.3c0-0.2,0-0.4,0-0.6h1.1c0,0.2,0,0.4,0,0.6c0,0.6,0.1,1.1,0.4,1.5
		c0.3,0.4,0.6,0.5,1.1,0.5c0.4,0,0.7-0.1,1-0.4c0.2-0.3,0.3-0.6,0.3-1c0-0.2,0-0.4-0.1-0.6s-0.2-0.2-0.4-0.2c-0.1,0-0.2,0.1-0.3,0.2
		c-0.1,0.1-0.1,0.2-0.1,0.4c0,0.2,0,0.4,0.1,0.6h-1.1c-0.1-0.2-0.1-0.4-0.1-0.7c0-0.4,0.1-0.8,0.4-1c0.3-0.3,0.6-0.4,1.1-0.4
		c0.5,0,0.9,0.2,1.3,0.5C32.1,42.4,32.3,42.8,32.3,43.3z"/>
	<path class="st3" d="M37.3,41.1h-0.7V46h-1.1l0,0l0,0l-2.7-1.8v-1.1c0.8-0.7,1.7-1.1,2.6-1.5v-0.5h-3v-0.9h4.8V41.1z M33.8,45.4
		c0.1,0.1,0.2,0.3,0.2,0.5c0,0.2-0.1,0.3-0.2,0.5c-0.1,0.1-0.3,0.2-0.5,0.2s-0.3-0.1-0.5-0.2c-0.1-0.2-0.1-0.3-0.1-0.5
		c0-0.2,0.1-0.3,0.2-0.5c0.1-0.1,0.3-0.2,0.5-0.2S33.6,45.3,33.8,45.4z M35.4,44.7v-2c-0.6,0.2-1.1,0.5-1.5,0.8L35.4,44.7z"/>
	<path class="st3" d="M42.9,46.1h-1.2v-2.5c0-0.4-0.2-0.6-0.5-0.6s-0.5,0.2-0.5,0.7v0.2h-1.2v-0.3c0-0.5-0.2-0.7-0.5-0.7
		c-0.2,0-0.3,0.1-0.4,0.2c-0.1,0.1-0.1,0.3-0.1,0.5c0,0.4,0.2,0.7,0.6,0.7c0.1,0,0.2,0,0.3,0v1c-0.2,0-0.3,0-0.5,0
		c-0.5,0-0.9-0.2-1.2-0.5c-0.3-0.3-0.5-0.7-0.5-1.2c0-0.5,0.1-0.9,0.4-1.2s0.7-0.4,1.2-0.4c0.3,0,0.6,0.1,0.8,0.2s0.3,0.3,0.4,0.5
		c0.1-0.2,0.2-0.4,0.3-0.5c0.1-0.1,0.4-0.2,0.6-0.2s0.5,0.1,0.6,0.2v-1h-4.8v-0.9h6.9v0.9h-0.7V46.1z"/>
	<path class="st3" d="M45.8,41.1h-0.7V46h-1.2v-4.4c0-0.2,0-0.4-0.1-0.4c-0.1-0.1-0.2-0.1-0.4-0.1h-0.3v-0.9h0.4
		c0.2,0,0.3,0.1,0.4,0.3c-0.1-0.3-0.1-0.6-0.1-0.8v-0.2h1.1v0.7h0.7v0.9H45.8z"/>
	<path class="st3" d="M51.7,41.1h-4.1v-0.9h4.1V41.1z M51.2,46.1h-1.5L48.3,45V44h0.8c0.4,0,0.7-0.1,0.9-0.3s0.3-0.4,0.3-0.7
		c0-0.2,0-0.3-0.1-0.4c-0.1-0.1-0.2-0.2-0.4-0.2s-0.3,0-0.4,0.1c-0.1,0.1-0.1,0.2-0.1,0.4c0,0.1,0,0.3,0,0.4h-1.1
		c-0.1-0.2-0.1-0.3-0.1-0.5c0-0.4,0.1-0.7,0.4-1c0.3-0.2,0.7-0.4,1.2-0.4s0.9,0.1,1.3,0.4c0.4,0.3,0.5,0.7,0.5,1.1
		c0,0.5-0.2,0.9-0.5,1.1c-0.3,0.2-0.7,0.5-1.2,0.5l1.6,1.1L51.2,46.1L51.2,46.1z"/>
	<path class="st3" d="M54,41.1h-0.7V46h-1.2v-4.4c0-0.2,0-0.4-0.1-0.4c-0.1-0.1-0.2-0.1-0.4-0.1h-0.2v-0.9h0.4
		c0.2,0,0.3,0.1,0.4,0.3c-0.1-0.3-0.1-0.6-0.1-0.8v-0.2h1.1v0.7h0.7L54,41.1L54,41.1z"/>
	<path class="st3" d="M58.2,43.7c0,0.6-0.2,1.1-0.6,1.7s-1,0.7-1.7,0.7c-0.5,0-0.8-0.1-1.2-0.4c-0.3-0.3-0.5-0.6-0.5-1.1v-3.4h-0.7
		v-0.9h3.3v-0.1V40c0-0.2,0-0.3-0.1-0.4c-0.1-0.1-0.2-0.1-0.4-0.1c-0.1,0-0.4,0-0.7,0.1c-0.4,0.1-0.6,0.1-0.8,0.1
		c-0.4,0-0.7-0.1-0.9-0.2v-0.9c0.2,0.1,0.4,0.1,0.8,0.1c0.2,0,0.5,0,0.9-0.1c0.4-0.1,0.7-0.1,0.9-0.1c0.4,0,0.8,0.1,1,0.4
		c0.2,0.3,0.4,0.6,0.4,1c0,0.1,0,0.3,0,0.4h0.7v0.8h-3.2v3.5c0,0.1,0,0.3,0.1,0.3c0.1,0.1,0.2,0.1,0.3,0.1c0.3,0,0.6-0.1,0.8-0.4
		S57,44,57,43.7c0-0.5-0.2-0.7-0.7-0.7c-0.1,0-0.2,0-0.4,0v-1c0.2,0,0.4-0.1,0.5-0.1c0.5,0,1,0.2,1.3,0.5
		C58.1,42.8,58.2,43.2,58.2,43.7z"/>
	<path class="st3" d="M59.5,47.1h-1.1l0.9-2.3h1.4L59.5,47.1z"/>
	<path class="st3" d="M69.3,43.7c0,0.5-0.1,0.9-0.4,1.2c-0.3,0.3-0.7,0.4-1.2,0.4c-0.1,0-0.1,0-0.2,0v-1.1h0.1
		c0.4,0,0.6-0.2,0.6-0.6c0-0.3-0.1-0.5-0.3-0.7s-0.5-0.3-0.9-0.3V46h-1.1l0,0l0,0l-2.6-1.8v-1.1c0.5-0.4,0.9-0.7,1.3-0.9
		c0.4-0.2,0.8-0.4,1.3-0.5v-0.5h-3v-0.9h6.8v0.9H67v0.4c0.6,0,1.1,0.2,1.6,0.6C69.1,42.6,69.3,43.1,69.3,43.7z M65.9,44.7v-2.1
		c-0.5,0.2-1,0.5-1.5,0.9L65.9,44.7z"/>
	<path class="st3" d="M72,41.1h-0.7V46h-1.2v-4.4c0-0.2,0-0.4-0.1-0.4c-0.1-0.1-0.2-0.1-0.4-0.1h-0.3v-0.9h0.4
		c0.2,0,0.3,0.1,0.4,0.3c0-0.3,0-0.6,0-0.9v-0.2h1.1v0.7h0.7L72,41.1L72,41.1z"/>
	<path class="st3" d="M75.9,41.1h-4.1v-0.9h4.1V41.1z M75.4,46.1h-1.5L72.4,45V44h0.7c0.4,0,0.7-0.1,0.9-0.3
		c0.2-0.2,0.3-0.4,0.3-0.7c0-0.2,0-0.3-0.1-0.4c-0.1-0.1-0.2-0.2-0.4-0.2c-0.2,0-0.3,0-0.4,0.1c-0.1,0.1-0.1,0.2-0.1,0.4
		c0,0.1,0,0.3,0,0.4h-1.1c-0.1-0.1-0.1-0.2-0.1-0.4c0-0.4,0.1-0.7,0.4-1c0.3-0.2,0.7-0.4,1.2-0.4c0.5,0,0.9,0.1,1.3,0.4
		s0.5,0.7,0.5,1.1c0,0.5-0.2,0.9-0.5,1.1c-0.3,0.2-0.7,0.5-1.2,0.5l1.6,1.1V46.1z"/>
	<path class="st3" d="M78.1,41.1h-0.7V46h-1.2v-4.4c0-0.2,0-0.4-0.1-0.4c-0.1,0-0.2-0.1-0.4-0.1h-0.3v-0.9h0.4
		c0.2,0,0.3,0.1,0.4,0.3c-0.1-0.3-0.1-0.6-0.1-0.8v-0.2h1.1v0.7h0.7v0.9H78.1z"/>
	<path class="st3" d="M80.4,46.1c-0.1,0-0.2,0-0.3,0c-0.3,0-0.6-0.1-0.8-0.2c-0.2-0.1-0.4-0.3-0.6-0.5c-0.1-0.2-0.2-0.5-0.3-0.8
		c-0.1-0.3-0.1-0.6-0.1-0.9c0-1.2,0.2-2.1,0.5-2.5h-1.1v-0.9h3v0.9h-0.3c-0.2,0-0.4,0.1-0.5,0.2c-0.1,0.1-0.2,0.3-0.3,0.6
		c-0.1,0.2-0.1,0.5-0.1,0.7s0,0.6,0,0.9c0,0.9,0.3,1.5,0.8,1.5c0.1,0,0.2,0,0.2,0L80.4,46.1L80.4,46.1z"/>
	<path class="st3" d="M85.2,41.1h-0.7V46h-1.1l0,0l0,0l-2.7-1.8v-1.1c0.8-0.7,1.7-1.1,2.6-1.5v-0.5h-3v-0.9h4.8V41.1z M81.8,45.4
		c0.1,0.1,0.2,0.3,0.2,0.5c0,0.2-0.1,0.3-0.2,0.5c-0.1,0.1-0.3,0.2-0.5,0.2c-0.2,0-0.3-0.1-0.5-0.3c-0.1-0.1-0.2-0.3-0.2-0.5
		c0-0.2,0.1-0.3,0.2-0.5c0.1-0.1,0.3-0.2,0.5-0.2C81.5,45.1,81.6,45.3,81.8,45.4z M83.3,44.7v-2c-0.6,0.2-1.1,0.5-1.5,0.8L83.3,44.7
		z"/>
	<path class="st3" d="M87.4,41.1h-0.7V46h-1.2v-4.4c0-0.2,0-0.4-0.1-0.4c-0.1-0.1-0.2-0.1-0.4-0.1h-0.3v-0.9h0.4
		c0.2,0,0.3,0.1,0.4,0.3c-0.1-0.3-0.1-0.6-0.1-0.8v-0.2h1.1v0.7h0.7v0.9H87.4z"/>
	<path class="st3" d="M93.1,46.1h-1.2v-2.5c0-0.4-0.2-0.6-0.5-0.6c-0.3,0-0.5,0.2-0.5,0.7v0.2h-1.2v-0.3c0-0.5-0.2-0.7-0.5-0.7
		c-0.2,0-0.3,0.1-0.4,0.2c-0.1,0.1-0.1,0.3-0.1,0.5c0,0.4,0.2,0.7,0.6,0.7c0.1,0,0.2,0,0.3,0v1c-0.2,0-0.3,0-0.5,0
		c-0.5,0-0.9-0.2-1.2-0.5c-0.3-0.3-0.5-0.7-0.5-1.2c0-0.5,0.1-0.9,0.4-1.2c0.3-0.3,0.7-0.4,1.2-0.4c0.3,0,0.6,0.1,0.8,0.2
		c0.2,0.1,0.3,0.3,0.4,0.5c0.1-0.2,0.2-0.4,0.3-0.5c0.1-0.1,0.4-0.2,0.6-0.2s0.5,0.1,0.6,0.2v-1h-4.8v-0.9h6.9v0.9h-0.7V46.1z"/>
	<path class="st3" d="M98.1,41.1h-0.7V46h-1.2v-4.9h-0.7v-0.9h0.7v-0.4c0-0.6,0.2-1,0.6-1.3c0.4-0.3,0.9-0.4,1.6-0.4
		c0.4,0,0.8,0,1.2,0.1c0.4,0.1,0.8,0.2,1,0.3v0.9c-0.2-0.1-0.6-0.2-1-0.3c-0.4-0.1-0.8-0.1-1.2-0.1c-0.7,0-1.1,0.3-1.1,0.8v0.4H98
		L98.1,41.1L98.1,41.1z"/>
	<path class="st3" d="M99.5,45h-1.1v-3.8h-0.7v-0.9h4.8v0.9h-3.2v2.2c0.5-0.6,1-1,1.4-1.2h1.1V46h-1.1v-2.7
		C100.3,43.9,99.8,44.4,99.5,45z"/>
	<path class="st3" d="M106.9,46.1h-1.2c0-0.2-0.1-0.5-0.1-0.7s-0.1-0.5-0.3-0.8c-0.1-0.3-0.2-0.5-0.4-0.6c-0.2-0.1-0.3-0.3-0.5-0.3
		s-0.3,0.1-0.4,0.2c-0.1,0.1-0.1,0.3-0.1,0.5s0,0.3,0,0.5h-1.2c-0.1-0.2-0.1-0.4-0.1-0.6c0-0.4,0.1-0.8,0.4-1.1
		c0.3-0.3,0.7-0.5,1.2-0.5c0.7,0,1.2,0.3,1.5,1v-2.5h-3.4v-0.9h5.2v0.9h-0.6C106.9,41.1,106.9,46.1,106.9,46.1z"/>
	<path class="st3" d="M109.7,41.1H109V46h-1.2v-4.4c0-0.2,0-0.4-0.1-0.4c-0.1-0.1-0.2-0.1-0.4-0.1h-0.3v-0.9h0.4
		c0.2,0,0.3,0.1,0.4,0.3c-0.1-0.3-0.1-0.6-0.1-0.8v-0.2h1.1v0.7h0.7v0.9H109.7z"/>
	<path class="st3" d="M114.7,43.8c0,0.6-0.2,1.1-0.6,1.7c-0.4,0.4-0.9,0.6-1.6,0.6c-0.8,0-1.4-0.3-1.9-0.8c-0.5-0.5-0.7-1.3-0.7-2.3
		c0-0.2,0-0.3,0-0.4h1.2c0,0.1,0,0.2,0,0.3c0,0.7,0.1,1.2,0.4,1.6c0.3,0.3,0.6,0.5,1.1,0.5c0.3,0,0.6-0.1,0.8-0.3
		c0.2-0.2,0.3-0.4,0.3-0.7c-0.2,0-0.3,0.1-0.5,0.1c-0.5,0-0.8-0.1-1.1-0.4c-0.3-0.3-0.4-0.6-0.4-1.1s0.2-1,0.5-1.5h-2.8v-0.9h7.8v1
		h-2.9c0.4,0.5,1.1,0.9,2.2,1.2c-0.3,0.7-0.4,1.6-0.4,2.4c0,0.4,0.1,0.8,0.2,1.2h-1.1c-0.1-0.4-0.2-0.8-0.2-1.2
		c0-0.7,0.1-1.2,0.3-1.8c-1-0.4-1.7-0.9-2-1.7c-0.4,0.3-0.6,0.7-0.6,1.1c0,0.4,0.2,0.6,0.7,0.6c0.3,0,0.7-0.1,1-0.2
		C114.7,43.2,114.7,43.5,114.7,43.8z"/>
	<path class="st3" d="M117.5,43.7l0.7-0.4c-0.2-0.4-0.5-0.6-0.9-0.7V42c0-0.5,0.2-0.9,0.5-1.3s0.8-0.6,1.4-0.6s1,0.2,1.3,0.6v-1.2
		h1.2v0.7h0.7v0.9h-0.7V46h-1.2v-2.9l-3,1.8V43.7z M118.5,42c0.3,0.1,0.5,0.3,0.6,0.6l1.4-0.8c-0.1-0.5-0.5-0.8-1-0.8
		c-0.3,0-0.5,0.1-0.7,0.3C118.6,41.5,118.5,41.8,118.5,42z"/>
	<path class="st3" d="M123.1,48.3c-0.3-0.3-0.7-0.6-1-0.9c-0.2,0.7-0.6,1-1.2,1c-0.4,0-0.7-0.1-1-0.3c-0.3-0.2-0.4-0.5-0.4-0.8
		c0-0.4,0.1-0.7,0.4-0.9c0.2-0.2,0.6-0.3,1-0.3c0.4,0,0.8,0.1,1.2,0.3s0.7,0.5,1,0.8V48.3z M121,47.5c0.3,0,0.4-0.2,0.5-0.6
		c-0.2-0.1-0.3-0.1-0.5-0.1c-0.1,0-0.2,0-0.3,0.1c-0.1,0.1-0.1,0.2-0.1,0.3c0,0.1,0,0.2,0.1,0.3C120.8,47.7,120.9,47.5,121,47.5z"/>
	<path class="st3" d="M126.9,41.1h-0.7V46h-1.1l0,0l0,0l-2.6-1.9V43c0.8-0.7,1.7-1.1,2.6-1.5v-0.4h-3v-0.9h4.8L126.9,41.1
		L126.9,41.1z M123.4,45.4c0.1,0.1,0.2,0.3,0.2,0.5c0,0.2-0.1,0.3-0.2,0.5c-0.1,0.1-0.3,0.2-0.5,0.2s-0.3-0.1-0.5-0.2
		c-0.1-0.1-0.2-0.3-0.2-0.5c0-0.2,0.1-0.3,0.2-0.5c0.1-0.1,0.3-0.2,0.5-0.2S123.3,45.3,123.4,45.4z M125.1,44.7v-2
		c-0.6,0.2-1.1,0.5-1.5,0.8L125.1,44.7z"/>
</g>
<g>
	<path d="M65.6,238.1v-1.9l-1.9,1v-0.5l0.6-0.2c-0.1-0.2-0.3-0.4-0.6-0.5v-0.1c0-0.4,0.1-0.6,0.3-0.8c0.2-0.2,0.5-0.4,0.8-0.4
		c0.5,0,0.7,0.1,0.9,0.5v-0.8h0.5v0.5h0.7v0.4h-0.7v3.6h-0.5l0,0c0-0.1-0.1-0.2-0.2-0.2s-0.2,0-0.3,0.1c-0.2,0-0.3,0.1-0.6,0.1
		s-0.5-0.1-0.6-0.2c-0.1-0.1-0.2-0.4-0.2-0.6c0-0.1,0-0.2,0-0.4h0.5c0,0.1,0,0.2,0,0.2c0,0.4,0.1,0.5,0.5,0.5c0.1,0,0.2,0,0.5-0.1
		c0.2-0.1,0.3-0.1,0.5-0.1C65.4,238,65.4,238.1,65.6,238.1z M64,235.8c0.2,0.1,0.3,0.2,0.5,0.5l1-0.5c0-0.2-0.1-0.4-0.2-0.5
		c-0.1-0.1-0.3-0.2-0.6-0.2s-0.5,0.1-0.6,0.2C64.1,235.5,64.1,235.6,64,235.8z"/>
	<path d="M69.9,235.1h-0.7v3.3h-0.5l-1.9-1V237c0.2-0.1,0.5-0.4,0.8-0.5c-0.2,0-0.5-0.1-0.6-0.2c-0.1-0.1-0.2-0.4-0.2-0.6
		c0-0.2,0.1-0.5,0.2-0.7c0.1-0.2,0.5-0.2,0.8-0.2c0.1,0,0.2,0,0.3,0v0.4c-0.1,0-0.2,0-0.3,0c-0.2,0-0.3,0-0.5,0.1
		c-0.1,0.1-0.1,0.2-0.1,0.4c0,0.2,0,0.4,0.1,0.4s0.2,0.1,0.5,0.1c0.2,0,0.5,0,0.6-0.1c0,0,0.1-0.1,0.2-0.1s0.1-0.1,0.1-0.1v-1.1h1
		v0.5H69.9z M68.7,238.1v-1.8l-1.5,1L68.7,238.1z"/>
	<path d="M71.3,235.1h-0.7v3.3h-0.5v-2.9c0-0.1,0-0.2-0.1-0.4c-0.1-0.1-0.1-0.1-0.2-0.1h-0.2v-0.4H70c0.2,0,0.3,0.1,0.3,0.2
		c0-0.2,0-0.4,0-0.6v-0.1h0.5v0.5h0.7v0.4H71.3z"/>
	<path d="M73.8,238.6h-0.5l0,0c-0.1-1.2-0.5-1.9-1-1.9c-0.2,0-0.3,0-0.5,0.1c-0.1,0.1-0.1,0.2-0.1,0.5c0,0.1,0,0.2,0,0.2h-0.5
		c0-0.1,0-0.2,0-0.2c0-0.4,0.1-0.6,0.2-0.7c0.2-0.2,0.5-0.4,0.7-0.4c0.5,0,0.8,0.2,1,0.8v-1.9h-2.4v-0.4h3.4v0.4h-0.5V238.6z"/>
	<path d="M77.2,235.1h-0.7v3.3h-0.5v-3.3h-0.7v-0.4h0.7v-0.2c0-0.8,0.5-1.2,1.2-1.2c0.5,0,0.9,0.1,1.5,0.2v0.4
		c-0.5-0.1-1-0.2-1.5-0.2c-0.3,0-0.6,0.1-0.7,0.2c-0.1,0.1-0.2,0.4-0.2,0.6v0.2h0.7v0.4H77.2z"/>
	<path d="M80.4,238.6h-0.5V236c0-0.2,0-0.5-0.1-0.6c-0.1-0.1-0.3-0.2-0.6-0.2c-0.2,0-0.3,0.1-0.5,0.2c-0.1,0.1-0.1,0.2-0.1,0.5
		c0,0.2,0,0.4,0.1,0.5c0.1,0.1,0.2,0.1,0.5,0.1c0.1,0,0.1,0,0.2,0v0.4c-0.1,0-0.2,0-0.2,0c-0.3,0-0.6-0.1-0.8-0.4
		c-0.1,0.2-0.5,0.4-0.8,0.4c-0.1,0-0.2,0-0.3,0v-0.4c0.1,0,0.2,0,0.2,0c0.2,0,0.3,0,0.5-0.1c0.1-0.1,0.1-0.2,0.1-0.5
		c0-0.2-0.1-0.4-0.2-0.5c-0.1-0.1-0.2-0.1-0.5-0.1h-0.6v-0.4h0.6c0.3,0,0.7,0.1,0.8,0.4c0.2-0.4,0.5-0.5,0.8-0.5
		c0.3,0,0.6,0.1,0.8,0.4v-0.7h0.5v0.5H81v0.4h-0.7v3.3H80.4z"/>
	<path d="M86.3,237.2c0,0.2-0.1,0.5-0.2,0.7c-0.1,0.2-0.3,0.2-0.7,0.2c-0.1,0-0.1,0-0.1,0v-0.4l0,0c0.3,0,0.6-0.1,0.6-0.5
		s-0.2-0.6-0.7-0.6c-0.1,0-0.2,0-0.3,0v2h-0.5c-0.6-0.6-1.2-1-1.9-1c-0.2,0-0.3,0-0.5,0.1c-0.1,0.1-0.1,0.2-0.1,0.5v0.1h-0.5
		c0-0.1,0-0.1,0-0.1c0-0.5,0.2-0.7,0.6-0.8c0.1-0.1,0.1-0.2,0.1-0.4c0-0.2-0.2-0.5-0.6-0.5h-0.2v-0.6h0.2c0.5,0,0.6-0.2,0.6-0.6
		c0-0.1,0-0.2-0.1-0.4h-1.1v-0.4H87v0.4h-2v1.1c0.1,0,0.2,0,0.3,0c0.3,0,0.7,0.1,0.8,0.2C86.2,236.6,86.3,236.8,86.3,237.2z
		 M82.5,236.9c0,0.1,0,0.2-0.1,0.4c0.3,0,0.7,0.1,1,0.2c0.3,0.1,0.7,0.4,0.9,0.6v-1.4c-0.1,0-0.3,0-0.3,0c-0.2,0-0.5-0.1-0.7-0.2
		c-0.1-0.1-0.2-0.4-0.2-0.6v-0.7h-0.8c0.1,0.1,0.1,0.2,0.1,0.4c0,0.4-0.1,0.6-0.6,0.7C82.3,236.4,82.5,236.6,82.5,236.9z M84,236.3
		c0.1,0,0.2,0,0.3,0v-1.1h-0.9v0.7C83.6,236.2,83.7,236.3,84,236.3z"/>
	<path d="M90.7,236.9c0,0.4-0.1,0.6-0.2,0.8S90,238,89.8,238h-0.1v-0.5h0.1c0.3,0,0.6-0.2,0.6-0.6c0-0.2-0.1-0.5-0.3-0.7
		c-0.2-0.1-0.5-0.2-0.8-0.2v2.6h-0.5l-1.7-1.4v-0.5c0.7-0.6,1.2-1,1.7-1.1v-0.4h-2.2v-0.4H91v0.4h-1.8v0.4c0.5,0,0.8,0.1,1.1,0.4
		C90.6,236.2,90.7,236.6,90.7,236.9z M88.8,238.1v-2c-0.5,0.1-0.9,0.4-1.4,0.8L88.8,238.1z"/>
</g>
<g>
	<path d="M98.3,227.4c-1.1,0.2-2.1,0.4-3.2,0.5c-2.7,0.3-5.5,0.5-8.2,0.7c-0.2,0-0.4,0.2-0.5,0.4c-0.3,0.4-0.6,0.8-0.9,1.2
		c-0.1,0-0.1-0.1-0.2-0.1c0.2-0.4,0.4-0.8,0.6-1.3c-2.9,0.2-5.8,0.5-8.6,0.7c0.2,0.7,0.4,1.5,0.6,2.2c-0.1,0-0.2,0-0.3,0
		c-0.2-1-0.5-1.8-1.2-2.3c-0.7,0.5-1.2,0.9-1.9,1.3c-0.2,0.1-0.6,0-0.8-0.2c-0.2-0.2-0.3-0.7-0.2-0.9c0.3-1.1,1.5-1.6,2.5-1.2
		c0.1,0,0.2,0.2,0.3,0.3c0.1,0.1,0.2,0.2,0.4,0.2c1,0,2,0,3-0.1c2-0.2,4-0.4,6-0.6c0.4,0,0.6-0.2,0.6-0.6c0-0.4,0.1-0.8,0.2-1.3
		c-1.2,0.6-2.3-0.2-3.4,0.4c-0.2,0.1-0.6-0.1-0.9-0.2c-0.5-0.1-1,0-1.4-0.2c-0.4-0.2-0.6-0.1-0.9,0.2c-0.3,0.2-0.8,0.6-1,0.4
		c-0.3-0.2-0.5-0.8-0.8-1.2c-0.6,0.5-1.3,1-2,1.6c-0.5-0.9-0.4-1.1,0.4-2.5c-0.5,0.3-1,0.5-1.3,0.7c0,0.4,0,0.7,0,0.9
		c-0.3-0.1-0.6-0.1-0.8-0.3c-0.5-0.6-1.1-1-2-1.2c1.2-0.5,2.4-1,3.5-1.5c0-0.1,0-0.1,0-0.2c-0.4,0.1-0.8,0.1-1.2,0.2
		c-1.4,0-2.7,0-4.1,0.1c-0.3,0-0.5,0.1-0.9,0.2c0-0.1-0.1-0.4-0.2-0.7c0.3-0.1,0.5-0.2,0.8-0.2c0.7,0,1.3,0.2,2,0.2
		c1.1,0,2.3-0.2,3.4-0.3c0.7-0.1,1.5-0.2,2.2-0.3c0.2,0,0.4,0.1,0.7,0.2c-0.2,0.2-0.4,0.4-0.6,0.5c-1.2,0.5-2.5,0.9-3.7,1.3
		c-0.2,0.1-0.4,0.2-0.6,0.3c0.2,0.1,0.4,0.2,0.5,0.4c0.3,0.3,0.6,0.3,1,0c0.7-0.5,1.5-1,2.4-0.7c0.4,0.1,0.8-0.2,1.2-0.2
		c1.2,0,2.4,0,3.6,0c0.7-0.1,1.4,0,2.1,0.3c0.3,0.1,0.7-0.1,1-0.3c0.4-0.1,0.8-0.3,1.2-0.5c0.2-0.1,0.4-0.3,0.5-0.6
		c0.7-1.6,2.2-2.3,3.6-1.8c0.7,0.2,1.2,0.8,1.4,1.5c0.2,0.5,0,1-0.4,1.2c-1,0.5-2,1.1-3.1,1.5c-1.2,0.4-1.3,0.3-1.5,1.6
		c0,0.3-0.1,0.6-0.1,1c0.7,0,1.5-0.1,2.2-0.1c1.8-0.1,3.6-0.2,5.3-0.4c1.3-0.1,2.7-0.4,4-0.5C98.3,227.1,98.3,227.2,98.3,227.4z
		 M83.2,225.2c0.1-0.2,0.2-0.4,0.3-0.6c-1-0.2-1.1-0.1-1,0.8C82.8,225.4,83,225.3,83.2,225.2c-0.1,0.3-0.2,0.7-0.4,1.1
		c0.5-0.2,0.9-0.3,1.4-0.5C84,225.1,84,225.1,83.2,225.2z M87.1,225.2c0.7-0.2,1.2-0.2,1.7-0.4c0.9-0.4,1.8-0.8,2.6-1.3
		c0.2-0.1,0.3-0.6,0.2-0.7c-0.2-0.3-0.5-0.6-0.7-0.9c-0.1-0.1-0.3,0.4-0.4-0.1c-0.1-0.3-1.6-0.3-1.8,0c-0.2,0.2-0.4,0.3-0.6,0.5
		c-0.2,0.3-0.5,0.6-0.7,0.9c-0.1,0.1,0.2,0.3,0.3,0.5c0,0.2,0.1,0.4,0,0.6C87.6,224.7,87.4,224.9,87.1,225.2z M76,228.9
		c-0.7-0.3-1.2-0.4-1.5,0.1c-0.2,0.4-0.7,0.7-0.2,1.4C74.8,230,75.4,229.5,76,228.9z M81.4,224.3c-0.4,0.1-0.7,0.2-1.1,0.4
		c0,0,0.1,0.4,0.2,0.6c0.3-0.2,0.5-0.3,0.7-0.4c0.1,0.1,0.2,0.2,0.2,0.3c-0.2,0.1-0.5,0.2-0.7,0.3c0.5,0.2,0.8,0.4,1.1,0.6
		c0.1-0.4,0.3-0.8,0.4-1.4c-0.4,0.1-0.5,0.1-0.7,0.2C81.5,224.8,81.4,224.6,81.4,224.3z M79.3,226.6c0.8-0.6,1-1.1,0.7-1.5
		c-0.4-0.4-0.6-0.1-0.9,0.2C78.6,225.7,78.6,225.8,79.3,226.6z M77.9,225.4c-0.4-0.6-0.9-0.3-1.2-0.1c-0.3,0.2-0.3,0.8-0.5,1.2
		c0.1,0.1,0.1,0.1,0.2,0.2C76.9,226.2,77.4,225.8,77.9,225.4z M86.4,224.9c-0.5,0-0.8,0-1.2,0c0,0.4-0.6,0.8-0.1,1.1
		C85.8,226.4,86,225.7,86.4,224.9z"/>
	<path d="M65.6,225.5c-0.1-0.2-0.3-0.3-0.4-0.5c0.7-1.4,1.5-1.7,2.8-1.1c0.8,0.4,1.6,1,2.5,1.5c0.2-0.3,0.4-0.8,0.7-1.2
		c0.1-0.2,0.4-0.3,0.7-0.4c-0.7,1.7-2,3-2.9,4.7c-0.1-0.2-0.2-0.3-0.2-0.4c-0.1-0.2,0-0.7-0.1-0.7c-0.4-0.1-0.8-0.2-1.2-0.2
		c-0.6,0.1-1.3,0.4-1.9,0.6c-0.7,0.3-0.8,0.2-1.1-0.6c-0.5-1.4-1.1-2.8-1.7-4.1c-0.1-0.4-0.1-0.8-0.2-1.2c0.6,0,0.5,0.5,0.6,0.9
		c0.6,1.5,1.3,3.1,1.9,4.7c1.3-0.3,2.5-1.4,4-0.6c0,0,0.1-0.1,0.1-0.1c0.2-0.4,0.7-0.9,0.6-1.1c-0.3-0.5-0.8-0.8-1.3-1.2
		c-0.1-0.1-0.3,0-0.3,0c-0.5,0.4-1,0.9-1.5,1.3c-0.3,0.3-0.6,0.5-1,0.8c0-0.1-0.1-0.1-0.1-0.2c0.2-0.2,0.4-0.5,0.6-0.7
		c0.1-0.2,0.1-0.4,0.1-0.7c-0.2,0-0.4,0.1-0.6,0.1C65.7,225.4,65.7,225.5,65.6,225.5z M67.9,224.5c-0.9-0.4-1.4-0.3-1.7,0.2
		C66.7,224.9,67.4,225.2,67.9,224.5z"/>
	<path d="M71.6,229.4c0.2-0.7,0.3-1.4,0.5-2c0-0.1,0.3-0.3,0.4-0.2c0.1,0.1,0.3,0.3,0.3,0.4c-0.2,0.6-0.5,1.1-0.8,1.7
		C72,229.3,71.8,229.3,71.6,229.4z"/>
</g>
<g>
	<rect x="57.5" y="231.7" width="40.8" height="0.2"/>
</g>
<g>
	<defs>
		<path id="SVGID_34_" d="M97.8,118.2H56c-2.9,0-5.3-2.5-5.3-5.6V59.2c0-3.1,2.4-5.6,5.3-5.6h41.8c2.9,0,5.3,2.5,5.3,5.6v53.4
			C103.1,115.7,100.7,118.2,97.8,118.2"/>
	</defs>
	<clipPath id="SVGID_21_">
		<use xlink:href="#SVGID_34_"  style="overflow:visible;"/>
	</clipPath>
	<g style="clip-path:url(#SVGID_21_);">
		
			<image style="overflow:visible;" width="120" height="150" xlink:href="C:\Users\Harekrishno\Downloads\WhatsApp Image 2026-02-19 at 12.09.47 PM.jpeg"  transform="matrix(0.4619 0 0 0.4439 48.1443 52.0564)">
		</image>
	</g>
</g>
</svg>
